<svg width="25" height="24" viewBox="0 0 25 24" fill="none" xmlns="http://www.w3.org/2000/svg">
<path d="M16.5 12.9V17.1C16.5 20.6 15.1 22 11.6 22H7.4C3.9 22 2.5 20.6 2.5 17.1V12.9C2.5 9.4 3.9 8 7.4 8H11.6C15.1 8 16.5 9.4 16.5 12.9Z" fill="white"/>
<path d="M17.6 2H13.4C10.3169 2 8.87099 3.09409 8.56975 5.73901C8.50673 6.29235 8.965 6.75 9.52191 6.75H11.6C15.8 6.75 17.75 8.7 17.75 12.9V14.9781C17.75 15.535 18.2077 15.9933 18.761 15.9303C21.4059 15.629 22.5 14.1831 22.5 11.1V6.9C22.5 3.4 21.1 2 17.6 2Z" fill="white"/>
</svg>
