<?xml version="1.0" standalone="no"?><!DOCTYPE svg PUBLIC "-//W3C//DTD SVG 1.1//EN" "http://www.w3.org/Graphics/SVG/1.1/DTD/svg11.dtd"><svg t="1683788650546" class="icon" viewBox="0 0 1331 1024" version="1.1" xmlns="http://www.w3.org/2000/svg" p-id="3430" xmlns:xlink="http://www.w3.org/1999/xlink" width="259.9609375" height="200"><path d="M1322.368 225.536c0-119.68-85.888-215.9616-192-215.9616C986.5728 2.6624 839.9616 0 690.2272 0H643.5328C494.08 0 347.2128 2.6624 203.4432 9.5744 97.5616 9.5744 11.6992 106.3936 11.6992 226.0736A3993.9584 3993.9584 0 0 0 2.56 510.1312c-0.256 94.6944 2.6112 189.3888 8.832 284.3392 0 119.68 85.888 216.7552 191.744 216.7552 151.04 7.168 305.9712 10.368 463.488 10.112 157.7728 0.512 312.1664-2.6624 463.4368-10.112 106.1376 0 192.0256-97.0752 192.0256-216.7552 6.2208-94.976 9.088-189.6448 8.832-284.5952 0.512-94.6944-2.3296-189.3888-8.576-284.3392zM539.7504 771.072V248.3968l376.2688 261.1712L539.7504 771.072z" fill="#ffffff" p-id="3431"></path></svg>