<svg width="56" height="56" viewBox="0 0 56 56" fill="none" xmlns="http://www.w3.org/2000/svg">
<g filter="url(#filter0_i_177_630)">
<path d="M47.25 0H8.75C3.91751 0 0 3.91751 0 8.75V47.25C0 52.0825 3.91751 56 8.75 56H47.25C52.0825 56 56 52.0825 56 47.25V8.75C56 3.91751 52.0825 0 47.25 0Z" fill="#212932"/>
</g>
<circle cx="27.5" cy="27.5" r="16.5" fill="#DBFF34"/>
<path d="M24.6895 26.5878C25.5385 26.5878 26.2262 27.2004 26.2107 27.9482C26.2107 28.6969 25.5402 29.3087 24.6895 29.3087C23.8552 29.3087 23.1675 28.6969 23.1675 27.9482C23.1675 27.2004 23.8397 26.5878 24.6895 26.5878ZM30.1347 26.5878C30.9853 26.5878 31.6576 27.2004 31.6576 27.9482C31.6576 28.6969 30.9853 29.3087 30.1347 29.3087C29.3003 29.3087 28.6135 28.6969 28.6135 27.9482C28.6135 27.2004 29.284 26.5878 30.1347 26.5878ZM31.5453 33C34.7618 32.9011 36 30.8291 36 30.8291C36 26.2283 33.9034 22.4991 33.9034 22.4991C31.8085 20.9572 29.8131 21.0001 29.8131 21.0001L29.6099 21.2285C32.0846 21.9714 33.2337 23.0432 33.2337 23.0432C31.8824 22.3113 30.3932 21.8452 28.8527 21.6721C27.8757 21.566 26.8888 21.5751 25.914 21.6993C25.8257 21.6993 25.7528 21.7141 25.6654 21.7282C25.1569 21.7719 23.9186 21.9565 22.3623 22.6285C21.8246 22.8709 21.5031 23.0432 21.5031 23.0432C21.5031 23.0432 22.7121 21.9137 25.3309 21.1716L25.1852 21.0001C25.1852 21.0001 23.1915 20.9581 21.0949 22.5007C21.0949 22.5007 19 26.2291 19 30.8282C19 30.8282 20.2228 32.8994 23.4393 33C23.4393 33 23.9769 32.3585 24.4151 31.8152C22.5655 31.271 21.8683 30.1282 21.8683 30.1282C21.8683 30.1282 22.0124 30.2288 22.2739 30.3715C22.2885 30.3855 22.3022 30.4003 22.3323 30.4135C22.376 30.444 22.4197 30.4572 22.4643 30.4861C22.8279 30.6856 23.1915 30.8423 23.525 30.9717C24.1227 31.2001 24.8353 31.4285 25.6662 31.5868C26.9105 31.8212 28.1898 31.8256 29.4358 31.6C30.1615 31.4755 30.8695 31.2696 31.5453 30.9866C32.1349 30.7672 32.6967 30.4842 33.22 30.1431C33.22 30.1431 32.492 31.3139 30.5849 31.844C31.0222 32.3866 31.547 33 31.547 33H31.5453Z" fill="#232937"/>
<path d="M27 46C17.0589 46 9 50.4772 9 56H45C45 50.4772 36.9411 46 27 46Z" fill="url(#paint0_radial_177_630)"/>
<defs>
<filter id="filter0_i_177_630" x="0" y="0" width="56" height="56" filterUnits="userSpaceOnUse" color-interpolation-filters="sRGB">
<feFlood flood-opacity="0" result="BackgroundImageFix"/>
<feBlend mode="normal" in="SourceGraphic" in2="BackgroundImageFix" result="shape"/>
<feColorMatrix in="SourceAlpha" type="matrix" values="0 0 0 0 0 0 0 0 0 0 0 0 0 0 0 0 0 0 127 0" result="hardAlpha"/>
<feOffset dx="1" dy="1"/>
<feComposite in2="hardAlpha" operator="arithmetic" k2="-1" k3="1"/>
<feColorMatrix type="matrix" values="0 0 0 0 0.87451 0 0 0 0 0.996078 0 0 0 0 0.258824 0 0 0 0.31 0"/>
<feBlend mode="normal" in2="shape" result="effect1_innerShadow_177_630"/>
</filter>
<radialGradient id="paint0_radial_177_630" cx="0" cy="0" r="1" gradientUnits="userSpaceOnUse" gradientTransform="translate(27.5455 56) rotate(-180) scale(17.4545 8.28056)">
<stop stop-color="#DEFD41" stop-opacity="0.63"/>
<stop offset="1" stop-color="#DEFD41" stop-opacity="0"/>
</radialGradient>
</defs>
</svg>
