<svg width="56" height="56" viewBox="0 0 56 56" fill="none" xmlns="http://www.w3.org/2000/svg">
<g filter="url(#filter0_i_177_635)">
<path d="M47.25 0H8.75C3.91751 0 0 3.91751 0 8.75V47.25C0 52.0825 3.91751 56 8.75 56H47.25C52.0825 56 56 52.0825 56 47.25V8.75C56 3.91751 52.0825 0 47.25 0Z" fill="#212932"/>
</g>
<circle cx="27.5" cy="27.5" r="16.5" fill="#DBFF34"/>
<path fill-rule="evenodd" clip-rule="evenodd" d="M21.3886 22H33.6382C34.3875 22 35 22.5749 35 23.2813V23.5489L29.036 29.1651C28.6302 29.5472 28.0895 29.758 27.5144 29.758C26.9402 29.758 26.3995 29.5472 25.9927 29.1651L20.0297 23.5489V23.2813C20.0297 22.5749 20.6393 22 21.3886 22ZM20 30.3077V24.4283L23.2576 27.4964L20 30.3077ZM34.9713 24.4283V30.2905L31.7223 27.4883L34.9713 24.4283ZM28.5698 30.1707C28.9134 30.0366 29.2254 29.8397 29.4877 29.5913L29.4886 29.5904L31.24 27.9415L34.9713 31.1601V31.7187C34.9713 32.4251 34.3607 33 33.6104 33H21.3609C20.6106 33 20 32.4251 20 31.7178V31.1772L23.74 27.9496L25.4826 29.5913C26.0176 30.095 26.7296 30.3725 27.4856 30.3725C27.8576 30.3734 28.2261 30.3048 28.5698 30.1707Z" fill="#232937"/>
<path d="M27 46C17.0589 46 9 50.4772 9 56H45C45 50.4772 36.9411 46 27 46Z" fill="url(#paint0_radial_177_635)"/>
<defs>
<filter id="filter0_i_177_635" x="0" y="0" width="56" height="56" filterUnits="userSpaceOnUse" color-interpolation-filters="sRGB">
<feFlood flood-opacity="0" result="BackgroundImageFix"/>
<feBlend mode="normal" in="SourceGraphic" in2="BackgroundImageFix" result="shape"/>
<feColorMatrix in="SourceAlpha" type="matrix" values="0 0 0 0 0 0 0 0 0 0 0 0 0 0 0 0 0 0 127 0" result="hardAlpha"/>
<feOffset dx="1" dy="1"/>
<feComposite in2="hardAlpha" operator="arithmetic" k2="-1" k3="1"/>
<feColorMatrix type="matrix" values="0 0 0 0 0.87451 0 0 0 0 0.996078 0 0 0 0 0.258824 0 0 0 0.31 0"/>
<feBlend mode="normal" in2="shape" result="effect1_innerShadow_177_635"/>
</filter>
<radialGradient id="paint0_radial_177_635" cx="0" cy="0" r="1" gradientUnits="userSpaceOnUse" gradientTransform="translate(27.5455 56) rotate(-180) scale(17.4545 8.28056)">
<stop stop-color="#DEFD41" stop-opacity="0.63"/>
<stop offset="1" stop-color="#DEFD41" stop-opacity="0"/>
</radialGradient>
</defs>
</svg>
