<svg width="56" height="56" viewBox="0 0 56 56" fill="none" xmlns="http://www.w3.org/2000/svg">
<g filter="url(#filter0_i_1597_2633)">
<path d="M47.25 0H8.75C3.91751 0 0 3.91751 0 8.75V47.25C0 52.0825 3.91751 56 8.75 56H47.25C52.0825 56 56 52.0825 56 47.25V8.75C56 3.91751 52.0825 0 47.25 0Z" fill="#212932"/>
</g>
<path fill-rule="evenodd" clip-rule="evenodd" d="M28.5 44C37.6127 44 45 36.6127 45 27.5C45 18.3873 37.6127 11 28.5 11C19.3873 11 12 18.3873 12 27.5C12 36.6127 19.3873 44 28.5 44ZM37.9902 18H34.7324L29.364 24.1603L24.7225 18H18L26.0323 28.544L18.4195 37.2787H21.6794L27.5549 30.5391L32.6898 37.2787H39.2459L30.8728 26.1663L37.9902 18ZM35.3942 35.3212H33.589L21.8044 19.8547H23.7416L35.3942 35.3212Z" fill="#DBFF34"/>
<path d="M27 46C17.0589 46 9 50.4772 9 56H45C45 50.4772 36.9411 46 27 46Z" fill="url(#paint0_radial_1597_2633)"/>
<defs>
<filter id="filter0_i_1597_2633" x="0" y="0" width="56" height="56" filterUnits="userSpaceOnUse" color-interpolation-filters="sRGB">
<feFlood flood-opacity="0" result="BackgroundImageFix"/>
<feBlend mode="normal" in="SourceGraphic" in2="BackgroundImageFix" result="shape"/>
<feColorMatrix in="SourceAlpha" type="matrix" values="0 0 0 0 0 0 0 0 0 0 0 0 0 0 0 0 0 0 127 0" result="hardAlpha"/>
<feOffset dx="1" dy="1"/>
<feComposite in2="hardAlpha" operator="arithmetic" k2="-1" k3="1"/>
<feColorMatrix type="matrix" values="0 0 0 0 0.87451 0 0 0 0 0.996078 0 0 0 0 0.258824 0 0 0 0.31 0"/>
<feBlend mode="normal" in2="shape" result="effect1_innerShadow_1597_2633"/>
</filter>
<radialGradient id="paint0_radial_1597_2633" cx="0" cy="0" r="1" gradientUnits="userSpaceOnUse" gradientTransform="translate(27.5455 56) rotate(-180) scale(17.4545 8.28056)">
<stop stop-color="#DEFD41" stop-opacity="0.63"/>
<stop offset="1" stop-color="#DEFD41" stop-opacity="0"/>
</radialGradient>
</defs>
</svg>
