<svg width="56" height="56" viewBox="0 0 56 56" fill="none" xmlns="http://www.w3.org/2000/svg">
<g filter="url(#filter0_i_177_640)">
<path d="M47.25 0H8.75C3.91751 0 0 3.91751 0 8.75V47.25C0 52.0825 3.91751 56 8.75 56H47.25C52.0825 56 56 52.0825 56 47.25V8.75C56 3.91751 52.0825 0 47.25 0Z" fill="#212932"/>
</g>
<circle cx="27.5" cy="27.5" r="16.5" fill="#DBFF34"/>
<path d="M27.25 26.2353V30.7647L31 28.4922L27.25 26.2353ZM35.85 31.6272C35.85 31.6272 35.7031 32.7046 35.2538 33.1795C34.6831 33.8026 34.0438 33.8052 33.7506 33.8415C31.6519 34 28.5031 34 28.5031 34H28.4969C28.4969 34 25.3481 34 23.2494 33.8415C22.9556 33.8052 22.3169 33.8026 21.7456 33.1795C21.2962 32.7046 21.15 31.6266 21.15 31.6266C21.15 31.6266 21 30.3622 21 29.0972V27.9099C21 26.6442 21.15 25.3786 21.15 25.3786C21.15 25.3786 21.2962 24.3012 21.7456 23.8263C22.3169 23.2032 23.0662 23.2232 23.4 23.1579C24.6 23.0369 28.5 23 28.5 23C28.5 23 31.6519 23.0052 33.7506 23.1631C34.0444 23.1999 34.6831 23.2025 35.2538 23.8256C35.7038 24.3006 35.85 25.3786 35.85 25.3786C35.85 25.3786 36 26.6436 36 27.9092V29.0959C36 30.3616 35.85 31.6272 35.85 31.6272Z" fill="#232937"/>
<path d="M27 46C17.0589 46 9 50.4772 9 56H45C45 50.4772 36.9411 46 27 46Z" fill="url(#paint0_radial_177_640)"/>
<defs>
<filter id="filter0_i_177_640" x="0" y="0" width="56" height="56" filterUnits="userSpaceOnUse" color-interpolation-filters="sRGB">
<feFlood flood-opacity="0" result="BackgroundImageFix"/>
<feBlend mode="normal" in="SourceGraphic" in2="BackgroundImageFix" result="shape"/>
<feColorMatrix in="SourceAlpha" type="matrix" values="0 0 0 0 0 0 0 0 0 0 0 0 0 0 0 0 0 0 127 0" result="hardAlpha"/>
<feOffset dx="1" dy="1"/>
<feComposite in2="hardAlpha" operator="arithmetic" k2="-1" k3="1"/>
<feColorMatrix type="matrix" values="0 0 0 0 0.87451 0 0 0 0 0.996078 0 0 0 0 0.258824 0 0 0 0.31 0"/>
<feBlend mode="normal" in2="shape" result="effect1_innerShadow_177_640"/>
</filter>
<radialGradient id="paint0_radial_177_640" cx="0" cy="0" r="1" gradientUnits="userSpaceOnUse" gradientTransform="translate(27.5455 56) rotate(-180) scale(17.4545 8.28056)">
<stop stop-color="#DEFD41" stop-opacity="0.63"/>
<stop offset="1" stop-color="#DEFD41" stop-opacity="0"/>
</radialGradient>
</defs>
</svg>
