<svg width="22" height="21" viewBox="0 0 22 21" fill="none" xmlns="http://www.w3.org/2000/svg">
<path d="M15.9814 15.1536H20.9814V16.8203H15.9814V15.1536ZM14.3147 18.4869H20.9814V20.1536H14.3147V18.4869ZM17.648 11.8203H20.9814V13.4869H17.648V11.8203Z" fill="#F36C17"/>
<path d="M10.8736 18.0361L9.44287 17.2947V19.7111H12.52V17.2947L11.0892 18.0361C11.0559 18.0533 11.0189 18.0623 10.9814 18.0623C10.9439 18.0623 10.9069 18.0533 10.8736 18.0361ZM11.0075 11.1387L11.1218 10.9415H10.8929L11.0075 11.1387Z" fill="#F36C17"/>
<path d="M19.9083 5.2954C19.7105 5.12373 19.493 4.97617 19.2604 4.85581L12.5627 1.38472C12.074 1.13193 11.5318 1 10.9816 1C10.4314 1 9.88917 1.13193 9.40046 1.38472L2.70228 4.85581C1.64082 5.40581 0.981445 6.46102 0.981445 7.60998V14.3902C0.981445 15.5389 1.64082 16.5941 2.70228 17.1444L9.4002 20.6152C9.88357 20.8653 10.4194 20.9972 10.9637 21C11.5079 21.0027 12.045 20.8763 12.5309 20.6311V17.3019L12.52 17.3076V19.724H9.44291V17.3076L4.17572 14.5782C4.14077 14.5607 4.11132 14.534 4.0906 14.5008C4.06988 14.4677 4.05869 14.4295 4.05827 14.3905V9.08915L1.77754 7.8954L1.78327 7.8855L4.05827 9.07613V9.08915L9.44291 11.9074V11.8944L10.307 12.3467L11.0075 11.1386L10.8929 10.9415H10.8854L10.2135 9.78472L10.2192 9.7816L10.8929 10.9415H11.1218L11.0075 11.1386L11.7002 12.3311L12.52 11.9014L15.8815 10.1391H20.9815V7.60998C20.9815 6.71753 20.5835 5.8829 19.9083 5.2954ZM12.3221 8.67925V8.66623L10.9882 9.36545L10.9757 9.37196L5.72103 6.6217L4.17572 7.42196C4.14077 7.43944 4.11132 7.46621 4.0906 7.49933C4.06988 7.53246 4.05869 7.57065 4.05827 7.60972V7.5967C4.05869 7.55763 4.06988 7.51944 4.0906 7.48631C4.11132 7.45319 4.14077 7.42641 4.17572 7.40894L5.70801 6.61493L5.72051 6.62144L10.8736 3.95113C10.907 3.93387 10.9439 3.92486 10.9815 3.92486C11.019 3.92486 11.0559 3.93387 11.0893 3.95113L13.6833 5.2954L16.2447 6.62352L12.3221 8.67925Z" fill="#F36C17"/>
<path d="M10.8736 18.0489C10.9069 18.0662 10.9439 18.0752 10.9814 18.0752C11.0189 18.0752 11.0559 18.0662 11.0892 18.0489L12.52 17.3075V11.914L11.7002 12.3437L11.0075 11.1516L10.3069 12.3596L9.44287 11.9073V17.3075L10.8736 18.0489Z" fill="#F36C17"/>
</svg>
