<svg width="21" height="20" viewBox="0 0 21 20" fill="none" xmlns="http://www.w3.org/2000/svg">
<path d="M15.9816 14.1536H20.9816V15.8203H15.9816V14.1536ZM14.3149 17.487H20.9816V19.1537H14.3149V17.487ZM17.6483 10.8203H20.9816V12.487H17.6483V10.8203Z" fill="white"/>
<path d="M10.8736 17.0359L9.44287 16.2945V18.7109H12.52V16.2945L11.0892 17.0359C11.0559 17.0532 11.0189 17.0622 10.9814 17.0622C10.9439 17.0622 10.9069 17.0532 10.8736 17.0359ZM11.0075 10.1385L11.1218 9.94141H10.8929L11.0075 10.1385Z" fill="white"/>
<path d="M19.9083 4.2954C19.7105 4.12373 19.493 3.97617 19.2604 3.85581L12.5627 0.384719C12.074 0.131928 11.5318 0 10.9816 0C10.4314 0 9.88917 0.131928 9.40046 0.384719L2.70228 3.85581C1.64082 4.40581 0.981445 5.46102 0.981445 6.60998V13.3902C0.981445 14.5389 1.64082 15.5941 2.70228 16.1444L9.4002 19.6152C9.88357 19.8653 10.4194 19.9972 10.9637 20C11.5079 20.0027 12.045 19.8763 12.5309 19.6311V16.3019L12.52 16.3076V18.724H9.44291V16.3076L4.17572 13.5782C4.14077 13.5607 4.11132 13.534 4.0906 13.5008C4.06988 13.4677 4.05869 13.4295 4.05827 13.3905V8.08915L1.77754 6.8954L1.78327 6.8855L4.05827 8.07613V8.08915L9.44291 10.9074V10.8944L10.307 11.3467L11.0075 10.1386L10.8929 9.94149H10.8854L10.2135 8.78472L10.2192 8.7816L10.8929 9.94149H11.1218L11.0075 10.1386L11.7002 11.3311L12.52 10.9014L15.8815 9.13915H20.9815V6.60998C20.9815 5.71753 20.5835 4.8829 19.9083 4.2954ZM12.3221 7.67925V7.66623L10.9882 8.36545L10.9757 8.37196L5.72103 5.6217L4.17572 6.42196C4.14077 6.43944 4.11132 6.46621 4.0906 6.49933C4.06988 6.53246 4.05869 6.57065 4.05827 6.60972V6.5967C4.05869 6.55763 4.06988 6.51944 4.0906 6.48631C4.11132 6.45319 4.14077 6.42641 4.17572 6.40894L5.70801 5.61493L5.72051 5.62144L10.8736 2.95113C10.907 2.93387 10.9439 2.92486 10.9815 2.92486C11.019 2.92486 11.0559 2.93387 11.0893 2.95113L13.6833 4.2954L16.2447 5.62352L12.3221 7.67925Z" fill="white"/>
<path d="M10.8736 17.0488C10.9069 17.066 10.9439 17.075 10.9814 17.075C11.0189 17.075 11.0559 17.066 11.0892 17.0488L12.52 16.3074V10.9139L11.7002 11.3436L11.0075 10.1514L10.3069 11.3594L9.44287 10.9071V16.3074L10.8736 17.0488Z" fill="white"/>
</svg>
