<svg width="20" height="20" viewBox="0 0 20 20" fill="none" xmlns="http://www.w3.org/2000/svg">
<path d="M17.7215 2.91288L16.5829 3.98723C16.4947 4.07041 16.4247 4.16928 16.3769 4.27818C16.3291 4.38708 16.3045 4.50385 16.3045 4.62178V15.3782C16.3045 15.6163 16.4046 15.8443 16.5829 16.0128L17.7215 17.0874C18.0928 17.4377 18.0928 18.0059 17.7215 18.3562L16.2579 19.7373C15.8866 20.0876 15.2845 20.0876 14.9132 19.7373L12.1232 17.1047C12.0349 17.0215 11.9649 16.9226 11.9171 16.8137C11.8693 16.7048 11.8447 16.588 11.8447 16.4701V3.52989C11.8447 3.2918 11.9449 3.06378 12.1232 2.89534L14.9132 0.26272C15.2845 -0.0875733 15.8866 -0.0875733 16.2579 0.26272L17.7215 1.64377C18.0928 1.99433 18.0928 2.56233 17.7215 2.91288ZM3.41708 3.98723L2.27846 2.91288C1.90718 2.56258 1.90718 1.99432 2.27846 1.64403L3.74209 0.262978C4.11337 -0.0875735 4.71548 -0.0875735 5.08704 0.262978L7.87656 2.89534C7.96479 2.97851 8.03481 3.07739 8.0826 3.18629C8.13038 3.29518 8.155 3.41195 8.15502 3.52989V16.4701C8.15502 16.7082 8.05485 16.9362 7.87656 17.1047L5.08676 19.737C4.71548 20.0873 4.11337 20.0873 3.74209 19.737L2.27873 18.356C1.90745 18.0057 1.90745 17.4374 2.27873 17.0871L3.41735 16.0128C3.50558 15.9296 3.57561 15.8307 3.62339 15.7218C3.67118 15.6129 3.69579 15.4962 3.69582 15.3782V4.62178C3.69554 4.3837 3.59537 4.15567 3.41708 3.98723Z" fill="#F36C17"/>
</svg>
