<svg width="22" height="22" viewBox="0 0 22 22" fill="none" xmlns="http://www.w3.org/2000/svg">
<path d="M8.79352 10.0568C8.29669 10.0568 7.90527 10.4922 7.90527 11.0238C7.90527 11.5537 8.30586 11.9909 8.79352 11.9909C9.28944 11.9909 9.68086 11.5537 9.68086 11.0238C9.69094 10.4913 9.28944 10.0568 8.79352 10.0568ZM11.9725 10.0568C11.4757 10.0568 11.0843 10.4922 11.0843 11.0238C11.0843 11.5537 11.4849 11.9909 11.9725 11.9909C12.4684 11.9909 12.8599 11.5537 12.8599 11.0238C12.8589 10.4913 12.4684 10.0568 11.9725 10.0568Z" fill="#BEFE00"/>
<path d="M16.2048 2.75H4.53476C4.29978 2.7506 4.06722 2.79748 3.85036 2.88796C3.63349 2.97844 3.43658 3.11074 3.27085 3.27732C3.10512 3.4439 2.97382 3.6415 2.88446 3.85882C2.79509 4.07614 2.7494 4.30894 2.75001 4.54392V16.3176C2.75001 17.3103 3.55117 18.1115 4.53476 18.1115H14.41L13.9471 16.4991L15.0627 17.5358L16.1159 18.5112L17.9896 20.1667V4.54392C17.9902 4.30894 17.9445 4.07614 17.8551 3.85882C17.7658 3.6415 17.6345 3.4439 17.4687 3.27732C17.303 3.11074 17.1061 2.97844 16.8892 2.88796C16.6724 2.79748 16.4398 2.7506 16.2048 2.75ZM12.8425 14.1231C12.8425 14.1231 12.529 13.7491 12.2687 13.4163C13.409 13.0937 13.8444 12.3805 13.8444 12.3805C13.4869 12.6152 13.1478 12.782 12.8425 12.8957C11.7312 13.3608 10.5074 13.4877 9.32434 13.2605C8.88719 13.1746 8.45883 13.0488 8.04467 12.8847C7.82625 12.8017 7.61397 12.7034 7.40942 12.5904C7.38284 12.5712 7.35717 12.5638 7.33151 12.5464C7.31777 12.5399 7.30559 12.5305 7.29576 12.5189C7.13901 12.4328 7.05192 12.3723 7.05192 12.3723C7.05192 12.3723 7.46992 13.0689 8.57634 13.3998C8.31509 13.7298 7.99242 14.1231 7.99242 14.1231C6.06834 14.0617 5.33776 12.7994 5.33776 12.7994C5.33776 9.99533 6.59176 7.72292 6.59176 7.72292C7.84576 6.7815 9.03834 6.80808 9.03834 6.80808L9.12542 6.91258C7.55792 7.36633 6.83467 8.05383 6.83467 8.05383C6.83467 8.05383 7.02717 7.94933 7.34892 7.80175C8.28026 7.39292 9.02001 7.27925 9.32526 7.25267C9.37751 7.24442 9.42151 7.23525 9.47376 7.23525C10.9837 7.03177 12.5191 7.31873 13.8536 8.05383C13.8536 8.05383 13.1652 7.40117 11.6848 6.94833L11.8067 6.809C11.8067 6.809 13.0002 6.78242 14.2533 7.72383C14.2533 7.72383 15.5073 9.99625 15.5073 12.8003C15.5073 12.7994 14.7675 14.0617 12.8425 14.1231Z" fill="#BEFE00"/>
</svg>
