<svg width="16" height="16" viewBox="0 0 16 16" fill="none" xmlns="http://www.w3.org/2000/svg">
<g clip-path="url(#clip0_133_8743)">
<path d="M7.99911 6.87563e-07C12.4196 -0.00183544 16 3.67409 16 8.21116C16 11.7989 13.7603 14.8487 10.641 15.9688C10.221 16.0771 10.2853 15.7705 10.2853 15.5612V14.1382C12.711 14.4301 12.8093 12.7813 12.972 12.5059C13.3009 11.9293 14.0784 11.7824 13.8461 11.507C13.2937 11.2151 12.7306 11.5804 12.0782 12.5701C11.6063 13.288 10.6857 13.1669 10.2192 13.0475C10.1173 12.616 9.89923 12.2304 9.59893 11.9311C12.1122 11.4684 13.1596 9.89305 13.1596 8.0202C13.1596 7.11132 12.8683 6.27588 12.2963 5.60202C12.6609 4.49116 12.2623 3.54005 12.2087 3.39867C11.1701 3.30319 10.0905 4.1625 10.0065 4.23043C9.4166 4.06702 8.74271 3.98072 7.98838 3.98072C7.23048 3.98072 6.5548 4.07069 5.95956 4.23594C5.75757 4.07804 4.75656 3.33991 3.79131 3.42988C3.73947 3.57127 3.34979 4.50034 3.693 5.59651C3.11384 6.27221 2.8189 7.11499 2.8189 8.02571C2.8189 9.90223 3.87353 11.4795 6.39392 11.9348C6.17805 12.1529 6.00663 12.413 5.8897 12.6999C5.77277 12.9867 5.71266 13.2947 5.71288 13.6057V15.6713C5.69858 15.8366 5.71288 16 5.44476 16C2.27908 14.9038 9.53674e-07 11.832 9.53674e-07 8.21299C9.53674e-07 3.67409 3.58217 6.87563e-07 7.99911 6.87563e-07Z" fill="#07acff"/>
</g>
<defs>
<clipPath id="clip0_133_8743">
<rect width="16" height="16" fill="white"/>
</clipPath>
</defs>
</svg>
