<svg width="201" height="26" viewBox="0 0 201 26" fill="none" xmlns="http://www.w3.org/2000/svg">
<path d="M27.1821 14.9132C27.1821 16.1632 27.1821 17.4133 27.1821 18.6632C26.989 18.8285 26.7492 18.818 26.516 18.8181C20.5075 18.8211 14.4988 18.8224 8.4903 18.8172C7.684 18.8166 7.53459 18.6677 7.53322 17.8735C7.52722 14.6213 7.52749 11.3691 7.53309 8.11684C7.53445 7.30456 7.68237 7.16323 8.53096 7.16232C13.1002 7.15736 17.6693 7.16062 22.2385 7.15997C23.1999 7.15984 23.2007 7.15919 23.2006 6.23327C23.2005 5.62448 23.1954 5.01556 23.2016 4.4069C23.205 4.06391 23.0579 3.90247 22.6948 3.91723C22.5112 3.92467 22.3266 3.91618 22.1426 3.91618C15.1131 3.91605 8.08353 3.91645 1.05409 3.91579C0.0113278 3.91566 -0.000543473 3.91409 0.0147391 2.93175C0.0298852 1.95764 -0.0518493 0.981954 0.0600411 0.00927532C8.96679 0.00927532 17.8735 0.011757 26.7803 1.76143e-06C27.1243 -0.000390079 27.1934 0.0643942 27.1921 0.393932C27.1761 3.95158 27.1821 7.50936 27.1821 11.067C26.9234 11.2732 26.6111 11.22 26.3154 11.2202C21.8164 11.2236 17.3176 11.2223 12.8187 11.2227C11.7748 11.2228 11.7743 11.2235 11.7746 12.2218C11.7747 12.8781 11.7655 13.5346 11.7782 14.1908C11.7877 14.6774 11.8529 14.7342 12.3672 14.7537C12.6847 14.7657 13.0026 14.7576 13.3204 14.7576C17.6521 14.7579 21.9837 14.7566 26.3154 14.7601C26.6111 14.7602 26.9234 14.7068 27.1821 14.9132Z" fill="#F36C17"/>
<path d="M27.1818 25.8747C18.3255 25.8747 9.46941 25.872 0.613293 25.883C0.202574 25.8835 0.0542507 25.8302 0.0557516 25.379C0.07581 19.5138 0.073081 13.6486 0.0597087 7.78339C0.05889 7.40774 0.155225 7.3043 0.548069 7.31631C1.50132 7.34544 2.45675 7.34348 3.41028 7.31788C3.8457 7.30626 3.97928 7.43399 3.97792 7.86149C3.96236 12.5409 3.97123 17.2202 3.96113 21.8996C3.96045 22.2116 4.00357 22.3354 4.38045 22.3349C11.9309 22.3229 19.4813 22.3258 27.0317 22.3254C27.0818 22.3254 27.1318 22.32 27.1819 22.3171C27.1818 23.5028 27.1818 24.6888 27.1818 25.8747Z" fill="#F36C17"/>
<path d="M54.8443 18.1613C54.8443 18.7459 54.8443 20.038 54.8443 21.33C54.6545 21.5008 54.4186 21.49 54.1893 21.4902C48.281 21.4933 43.0765 21.4946 37.1681 21.4892C36.3753 21.4885 36.2284 21.3346 36.227 20.5138C36.2211 17.1521 36.2214 15.2055 36.2269 11.8438C36.2282 11.0042 36.3737 10.8581 37.2081 10.8572C41.7012 10.852 46.1941 10.8554 50.6871 10.8547C51.6325 10.8546 51.6333 10.8539 51.6332 9.89688C51.633 9.26761 51.6281 8.63822 51.6341 8.00909C51.6375 7.65456 51.4928 7.48769 51.1358 7.50295C50.9553 7.51064 50.7738 7.50187 50.5928 7.50187C43.6805 7.50173 44.1479 7.50214 37.2356 7.50146C36.2103 7.50133 36.1986 7.49971 36.2136 6.48433C36.2285 5.47732 36.1483 5.17624 36.2582 4.17085C45.0164 4.17085 45.691 4.17341 54.4492 4.16126C54.7875 4.16086 54.8555 4.22782 54.8541 4.56844C54.8384 8.24573 54.8443 10.5083 54.8443 14.1856C54.5899 14.3988 54.2828 14.3437 53.9921 14.344C49.5681 14.3475 45.1443 14.3462 40.7204 14.3466C39.6939 14.3467 39.6934 14.3474 39.6937 15.3792C39.6938 16.0576 39.6848 16.7362 39.6973 17.4144C39.7066 17.9175 39.7707 17.9762 40.2764 17.9963C40.5886 18.0087 40.9013 18.0004 41.2138 18.0004C45.4732 18.0006 49.7326 17.9993 53.9921 18.0029C54.2828 18.0032 54.5901 17.948 54.8443 18.1613Z" fill="#F36C17"/>
<path d="M120.365 21.6972V10.7955C120.365 10.1707 120.528 9.60343 120.854 9.0937C121.181 8.58396 121.61 8.17289 122.143 7.86047C122.692 7.54806 123.285 7.39185 123.921 7.39185H132.217V10.6229H124.049C123.963 10.6229 123.886 10.6558 123.817 10.7216C123.766 10.7709 123.74 10.8367 123.74 10.9189V21.6972H120.365Z" fill="#F36C17"/>
<path d="M114.124 21.6971V7.39169H117.499V21.6971H114.124ZM114.124 5.96115V2.70544H117.499V5.96115H114.124Z" fill="#F36C17"/>
<path d="M99.789 21.6972C99.1362 21.6972 98.535 21.541 97.9853 21.2286C97.4528 20.9162 97.0234 20.5051 96.697 19.9954C96.3878 19.4857 96.2332 18.9184 96.2332 18.2935V12.9167H108.034V10.9189C108.034 10.8367 108 10.7709 107.931 10.7216C107.88 10.6558 107.811 10.6229 107.725 10.6229H96.2332V7.39185H107.854C108.507 7.39185 109.099 7.54806 109.632 7.86047C110.182 8.17289 110.611 8.58396 110.92 9.0937C111.247 9.60343 111.41 10.1707 111.41 10.7955V21.6972H99.789ZM99.9178 18.4662H108.034V15.8271H99.6086V18.1702C99.6086 18.2524 99.6344 18.3264 99.6859 18.3922C99.7547 18.4415 99.8319 18.4662 99.9178 18.4662Z" fill="#F36C17"/>
<path d="M77.7672 21.6973V3.93893H94.8507V7.21931H81.1942V11.1656H92.1709V14.4707H81.1942V21.6973H77.7672Z" fill="#F36C17"/>
<path d="M57.2085 21.6973V3.93893H60.6355V11.1656H64.9901L71.3288 3.93893H75.0392V4.87618L68.0821 12.8181L75.065 20.7601V21.6973H71.3288L64.9901 14.4707H60.6355V21.6973H57.2085Z" fill="#F36C17"/>
<path d="M145.69 3.745H142.36V2.5H150.445V3.745H147.115V13H145.69V3.745ZM152.736 13.12C151.856 13.12 151.146 12.87 150.606 12.37C150.076 11.86 149.811 11.195 149.811 10.375V8.305C149.811 7.425 150.076 6.72 150.606 6.19C151.146 5.66 151.856 5.395 152.736 5.395H153.966C154.816 5.395 155.501 5.655 156.021 6.175C156.541 6.695 156.801 7.385 156.801 8.245V9.655H151.206V10.375C151.206 10.835 151.346 11.205 151.626 11.485C151.906 11.765 152.276 11.905 152.736 11.905H153.891C154.341 11.905 154.706 11.79 154.986 11.56C155.266 11.32 155.406 11.005 155.406 10.615H156.771C156.771 11.365 156.506 11.97 155.976 12.43C155.446 12.89 154.746 13.12 153.876 13.12H152.736ZM155.406 8.545V8.245C155.406 7.745 155.271 7.345 155.001 7.045C154.741 6.745 154.396 6.595 153.966 6.595H152.736C152.276 6.595 151.906 6.755 151.626 7.075C151.346 7.385 151.206 7.8 151.206 8.32V8.545H155.406ZM160.829 13.12C160.019 13.12 159.369 12.9 158.879 12.46C158.389 12.01 158.144 11.42 158.144 10.69H159.509C159.509 11.06 159.629 11.36 159.869 11.59C160.109 11.82 160.429 11.935 160.829 11.935H162.149C162.529 11.935 162.834 11.865 163.064 11.725C163.294 11.575 163.409 11.38 163.409 11.14V10.705C163.409 10.545 163.339 10.405 163.199 10.285C163.069 10.155 162.899 10.07 162.689 10.03L160.094 9.58C159.544 9.48 159.104 9.275 158.774 8.965C158.444 8.645 158.279 8.275 158.279 7.855V7.36C158.279 6.77 158.514 6.295 158.984 5.935C159.454 5.575 160.084 5.395 160.874 5.395H162.134C162.884 5.395 163.484 5.6 163.934 6.01C164.394 6.42 164.624 6.965 164.624 7.645H163.259C163.249 7.325 163.139 7.07 162.929 6.88C162.729 6.68 162.464 6.58 162.134 6.58H160.889C160.519 6.58 160.224 6.655 160.004 6.805C159.794 6.955 159.689 7.155 159.689 7.405V7.78C159.689 7.94 159.759 8.08 159.899 8.2C160.039 8.32 160.219 8.405 160.439 8.455L163.064 8.92C163.584 9.01 164.004 9.21 164.324 9.52C164.654 9.83 164.819 10.19 164.819 10.6V11.185C164.819 11.765 164.574 12.235 164.084 12.595C163.594 12.945 162.949 13.12 162.149 13.12H160.829ZM169.43 13C168.61 13 168.015 12.82 167.645 12.46C167.285 12.1 167.105 11.52 167.105 10.72V6.73H165.785V5.515H167.12V3.25H168.5V5.515H170.45V6.73H168.5V10.69C168.5 11.08 168.575 11.36 168.725 11.53C168.885 11.7 169.14 11.785 169.49 11.785H170.45V13H169.43ZM172.244 5.515H173.579V6.55C173.799 6.21 174.089 5.935 174.449 5.725C174.819 5.505 175.184 5.395 175.544 5.395H176.534C177.254 5.395 177.834 5.635 178.274 6.115C178.724 6.595 178.949 7.225 178.949 8.005V13H177.554V8.005C177.554 7.595 177.449 7.265 177.239 7.015C177.029 6.755 176.754 6.625 176.414 6.625H175.484C175.054 6.625 174.664 6.79 174.314 7.12C173.964 7.45 173.739 7.88 173.639 8.41V13H172.244V5.515ZM183.585 13.12C182.705 13.12 181.995 12.87 181.455 12.37C180.925 11.86 180.66 11.195 180.66 10.375V8.305C180.66 7.425 180.925 6.72 181.455 6.19C181.995 5.66 182.705 5.395 183.585 5.395H184.815C185.665 5.395 186.35 5.655 186.87 6.175C187.39 6.695 187.65 7.385 187.65 8.245V9.655H182.055V10.375C182.055 10.835 182.195 11.205 182.475 11.485C182.755 11.765 183.125 11.905 183.585 11.905H184.74C185.19 11.905 185.555 11.79 185.835 11.56C186.115 11.32 186.255 11.005 186.255 10.615H187.62C187.62 11.365 187.355 11.97 186.825 12.43C186.295 12.89 185.595 13.12 184.725 13.12H183.585ZM186.255 8.545V8.245C186.255 7.745 186.12 7.345 185.85 7.045C185.59 6.745 185.245 6.595 184.815 6.595H183.585C183.125 6.595 182.755 6.755 182.475 7.075C182.195 7.385 182.055 7.8 182.055 8.32V8.545H186.255ZM192.325 13C191.505 13 190.91 12.82 190.54 12.46C190.18 12.1 190 11.52 190 10.72V6.73H188.68V5.515H190.015V3.25H191.395V5.515H193.345V6.73H191.395V10.69C191.395 11.08 191.47 11.36 191.62 11.53C191.78 11.7 192.035 11.785 192.385 11.785H193.345V13H192.325Z" fill="#F36C17"/>
<circle cx="198.5" cy="2.5" r="2" stroke="#F36C17"/>
</svg>
