<svg width="22" height="22" viewBox="0 0 22 22" fill="none" xmlns="http://www.w3.org/2000/svg">
<path d="M17.933 6.01133L19.25 4.7459V4.46875H14.6889L11.4383 12.5984L7.74082 4.46875H2.9584V4.7459L4.49668 6.60645C4.64707 6.74395 4.72441 6.9459 4.70508 7.14785V14.459C4.75234 14.7232 4.66855 14.9918 4.48379 15.183L2.75 17.2949V17.5678H7.66133V17.2906L5.92969 15.1852C5.74277 14.9939 5.65254 14.7275 5.69121 14.4611V8.13613L10.0031 17.5721H10.5037L14.2119 8.13613V15.6535C14.2119 15.8512 14.2119 15.892 14.083 16.023L12.7488 17.3186V17.5957H19.2199V17.3186L17.933 16.0531C17.8213 15.9672 17.7633 15.8232 17.7869 15.6836V6.38086C17.7633 6.24121 17.8213 6.09727 17.933 6.01133Z" fill="#B1AAB6"/>
</svg>
