<svg width="18" height="18" viewBox="0 0 18 18" fill="none" xmlns="http://www.w3.org/2000/svg">
<g clip-path="url(#clip0_133_8721)">
<path d="M15.6257 5.61437C15.6257 5.45828 15.6227 5.30395 15.6158 5.15068C16.2831 4.6535 16.862 4.03114 17.3199 3.31897C16.6981 3.59876 16.0364 3.77978 15.3588 3.8555C16.064 3.42149 16.6049 2.72737 16.8605 1.89438C16.2001 2.29488 15.4697 2.5812 14.693 2.73039C14.0707 2.02229 13.1827 1.57129 12.2009 1.55453C10.3155 1.52336 8.78705 3.11668 8.78705 5.11284C8.78705 5.39658 8.81672 5.67175 8.87563 5.93746C6.03638 5.75475 3.52044 4.27687 1.83748 2.04895C1.54382 2.58272 1.37535 3.20655 1.37535 3.87508C1.37535 5.13952 1.97807 6.26335 2.89385 6.92651C2.33322 6.90115 1.80804 6.73135 1.3474 6.45296V6.49939C1.3474 8.26662 2.52456 9.74729 4.0865 10.0928C3.80016 10.1742 3.49813 10.2166 3.18751 10.2151C2.97169 10.2139 2.75658 10.1904 2.54563 10.1448C2.97965 11.593 4.24104 12.651 5.73439 12.6863C4.56563 13.6554 3.09335 14.2342 1.49489 14.2302C1.21929 14.2302 0.946938 14.2117 0.679932 14.1782C2.19136 15.2149 3.98548 15.8188 5.91414 15.8188C12.1923 15.8203 15.6257 10.3556 15.6257 5.61437Z" fill="#07acff"/>
</g>
<defs>
<clipPath id="clip0_133_8721">
<rect width="16.64" height="16.64" fill="white" transform="translate(0.679932 0.959961)"/>
</clipPath>
</defs>
</svg>
