<svg width="50" height="50" viewBox="0 0 50 50" fill="none" xmlns="http://www.w3.org/2000/svg">
<g clip-path="url(#clip0_83_63615)">
<circle cx="25" cy="25" r="25" fill="url(#paint0_linear_83_63615)"/>
<path fill-rule="evenodd" clip-rule="evenodd" d="M25.5374 35.1743L36.9217 28.6016L25.5374 35.1743Z" fill="url(#paint1_linear_83_63615)"/>
<path fill-rule="evenodd" clip-rule="evenodd" d="M23.561 38.0154L34.9454 31.4426L23.561 38.0154Z" fill="url(#paint2_linear_83_63615)"/>
<path fill-rule="evenodd" clip-rule="evenodd" d="M18.4324 28.5837C18.4367 28.857 18.4668 28.906 18.704 29.0538L30.0883 22.481C29.8511 22.3333 29.821 22.2843 29.8167 22.011L18.4324 28.5837ZM19.0175 29.2377L19.0169 29.2374C18.9126 29.178 18.8083 29.1187 18.7041 29.0538L30.0884 22.4811C30.1926 22.546 30.2969 22.6053 30.4012 22.6646L30.4012 22.6646L30.4018 22.665L30.4019 22.6649C30.444 22.6888 30.4861 22.7127 30.5281 22.737L19.1438 29.3098C19.1018 29.2855 19.0597 29.2616 19.0176 29.2377L19.0175 29.2377ZM19.1438 29.3099L20.6115 30.1573L31.9959 23.5845L30.5282 22.7371L19.1438 29.3099Z" fill="url(#paint3_linear_83_63615)"/>
<path fill-rule="evenodd" clip-rule="evenodd" d="M29.815 20.9146C29.8151 21.0206 29.8147 21.1264 29.8144 21.2322L29.8143 21.2408L29.8142 21.2409C29.8134 21.4967 29.8125 21.7525 29.8166 22.0111L18.4323 28.5838C18.4282 28.3252 18.4291 28.0694 18.4299 27.8136L18.43 27.8136L18.43 27.8136L18.43 27.8056C18.4304 27.6996 18.4307 27.5935 18.4307 27.4872L18.4308 27.4872C18.4307 27.2206 18.4307 27.0819 18.484 27.0405L29.8683 20.4678C29.8151 20.5092 29.815 20.6479 29.8151 20.9145L29.815 20.9146Z" fill="url(#paint4_linear_83_63615)"/>
<path fill-rule="evenodd" clip-rule="evenodd" d="M18.4841 27.0406C18.4886 27.0372 18.4934 27.0344 18.4986 27.0323L18.4841 27.0406ZM18.4986 27.0323C18.5611 27.0068 18.6813 27.0762 18.9125 27.2096L18.9125 27.2095L20.5639 28.1629L31.9482 21.5902L30.2966 20.6367L30.2966 20.6367C30.0464 20.4923 29.9262 20.423 29.8685 20.4679L18.4986 27.0323ZM20.6028 28.1853L20.564 28.1629L31.9483 21.5902L31.9846 21.6111C33.497 22.4844 35.0094 23.3576 36.5219 24.2294L36.522 24.2294C36.5452 24.2428 36.5687 24.2572 36.5922 24.2716L36.5921 24.2716C36.7067 24.3418 36.8226 24.4129 36.9216 24.3749L25.5373 30.9477C25.4383 30.9857 25.3223 30.9146 25.2078 30.8444L25.2079 30.8443C25.1843 30.8299 25.1609 30.8156 25.1377 30.8022L25.1376 30.8022C23.6267 29.9312 22.1158 29.0589 20.605 28.1866L20.6045 28.1864L20.6028 28.1853Z" fill="url(#paint5_linear_83_63615)"/>
<path fill-rule="evenodd" clip-rule="evenodd" d="M13.0277 17.5727C12.9933 17.9136 12.9986 18.2781 13.0038 18.6426L24.3882 12.0698C24.3829 11.7054 24.3776 11.3409 24.412 11L13.0277 17.5727Z" fill="url(#paint6_linear_83_63615)"/>
<path fill-rule="evenodd" clip-rule="evenodd" d="M13.0037 18.6426C13.0063 18.8249 13.0089 19.0073 13.0066 19.1867L24.3909 12.614C24.3933 12.4346 24.3906 12.2522 24.388 12.0698L13.0037 18.6426Z" fill="url(#paint7_linear_83_63615)"/>
<path fill-rule="evenodd" clip-rule="evenodd" d="M13.0069 19.1868C12.9998 19.7293 13.0053 19.7333 13.4863 20.0111L24.8706 13.4383C24.3896 13.1605 24.3842 13.1565 24.3912 12.614L13.0069 19.1868Z" fill="url(#paint8_linear_83_63615)"/>
<path fill-rule="evenodd" clip-rule="evenodd" d="M13.4861 20.011C15.6476 21.2591 17.8091 22.5071 19.9706 23.755L31.355 17.1823C29.1934 15.9344 27.0319 14.6864 24.8704 13.4382L13.4861 20.011Z" fill="url(#paint9_linear_83_63615)"/>
<path fill-rule="evenodd" clip-rule="evenodd" d="M19.9707 23.7551C21.0515 24.3791 22.1322 25.0031 23.213 25.627L34.5973 19.0543C33.5165 18.4303 32.4358 17.8063 31.355 17.1824L19.9707 23.7551Z" fill="url(#paint10_linear_83_63615)"/>
<path fill-rule="evenodd" clip-rule="evenodd" d="M16.5664 23.6831C16.4935 23.7157 16.4749 23.839 16.4746 24.0738L27.8589 17.5011C27.8593 17.2663 27.8779 17.1429 27.9507 17.1104L16.5664 23.6831Z" fill="url(#paint11_linear_83_63615)"/>
<path fill-rule="evenodd" clip-rule="evenodd" d="M16.4746 24.074C16.472 25.882 16.4719 27.6914 16.4747 29.5026L27.859 22.9299C27.8562 21.1187 27.8564 19.3093 27.859 17.5012L16.4746 24.074Z" fill="url(#paint12_linear_83_63615)"/>
<path fill-rule="evenodd" clip-rule="evenodd" d="M16.4746 29.5024C16.4752 29.9447 16.5442 30.0673 16.9161 30.2824L28.3004 23.7096C27.9285 23.4945 27.8596 23.3719 27.8589 22.9297L16.4746 29.5024Z" fill="url(#paint13_linear_83_63615)"/>
<path fill-rule="evenodd" clip-rule="evenodd" d="M16.916 30.2822C19.6874 31.8852 22.4588 33.4845 25.2302 35.0829L36.6145 28.5102C33.8431 26.9118 31.0717 25.3124 28.3003 23.7095L16.916 30.2822Z" fill="url(#paint14_linear_83_63615)"/>
<path fill-rule="evenodd" clip-rule="evenodd" d="M25.2302 35.0832C25.2363 35.0867 25.2424 35.0903 25.2486 35.0938L36.6329 28.5211C36.6267 28.5175 36.6206 28.514 36.6145 28.5105L25.2302 35.0832Z" fill="url(#paint15_linear_83_63615)"/>
<path fill-rule="evenodd" clip-rule="evenodd" d="M13.2576 32.0713C16.692 34.049 20.1265 36.0321 23.561 38.0153L34.9453 31.4425C31.5108 29.4594 28.0763 27.4763 24.6419 25.4985L13.2576 32.0713Z" fill="url(#paint16_linear_83_63615)"/>
<path fill-rule="evenodd" clip-rule="evenodd" d="M23.561 38.0154C24.2213 38.3966 24.8816 38.7779 25.5418 39.1591L36.9261 32.5863C36.2659 32.2052 35.6056 31.8238 34.9454 31.4426L23.561 38.0154Z" fill="url(#paint17_linear_83_63615)"/>
<path fill-rule="evenodd" clip-rule="evenodd" d="M25.4724 37.1597C25.4882 37.1688 25.5041 37.1766 25.5199 37.1844L36.9042 30.6116C36.8884 30.6038 36.8726 30.596 36.8567 30.5869L25.4724 37.1597ZM25.5419 37.1953C25.5346 37.1915 25.5273 37.188 25.52 37.1844L36.9043 30.6117L36.9043 30.6117C36.9116 30.6152 36.919 30.6188 36.9263 30.6226L25.5419 37.1953ZM25.5419 39.159L25.542 37.1954L36.9263 30.6226L36.9262 32.5863L25.5419 39.159Z" fill="url(#paint18_linear_83_63615)"/>
<path fill-rule="evenodd" clip-rule="evenodd" d="M13.0018 21.9328C13.008 25.1739 13.0093 28.4121 13 31.6443L24.3843 25.0716C24.3936 21.8394 24.3923 18.6012 24.3862 15.3601L13.0018 21.9328Z" fill="url(#paint19_linear_83_63615)"/>
<path fill-rule="evenodd" clip-rule="evenodd" d="M13 31.6443C12.9993 31.893 13.0679 31.962 13.2578 32.0713L24.6421 25.4985C24.4522 25.3892 24.3836 25.3202 24.3843 25.0715L13 31.6443Z" fill="url(#paint20_linear_83_63615)"/>
<path fill-rule="evenodd" clip-rule="evenodd" d="M14.8084 27.3691L14.8084 27.3808L14.8084 27.3808C14.8081 28.5096 14.8077 29.6384 14.8057 30.7663L26.19 24.1936C26.192 23.0663 26.1924 21.9382 26.1928 20.81V20.8081L26.1927 20.8081L26.1927 20.7965C26.1932 19.3467 26.1937 17.8969 26.1977 16.4492L14.8134 23.022C14.8094 24.4696 14.8089 25.9194 14.8084 27.3691Z" fill="url(#paint21_linear_83_63615)"/>
<path fill-rule="evenodd" clip-rule="evenodd" d="M14.8135 23.0219C14.8141 22.7863 14.7523 22.6801 14.551 22.5703L25.9353 15.9976C26.1367 16.1074 26.1984 16.2135 26.1978 16.4492L14.8135 23.0219Z" fill="url(#paint22_linear_83_63615)"/>
<path fill-rule="evenodd" clip-rule="evenodd" d="M13.0518 21.7467C13.0514 21.7469 13.051 21.747 13.0506 21.7472L24.4291 15.1778C24.4305 15.1769 24.432 15.1761 24.4334 15.1754L24.4349 15.1745C24.4691 15.1585 24.5247 15.1791 24.6119 15.2326L13.2276 21.8053C13.2268 21.8049 13.2261 21.8044 13.2253 21.8039L13.002 21.9328C13.0018 21.8249 13.0137 21.7646 13.0508 21.7473L13.0518 21.7467ZM14.5511 22.5704C14.1102 22.33 13.6685 22.076 13.2277 21.8055L24.612 15.2327C25.0528 15.5033 25.4945 15.7573 25.9354 15.9977L14.5511 22.5704Z" fill="url(#paint23_linear_83_63615)"/>
<path fill-rule="evenodd" clip-rule="evenodd" d="M23.4214 35.9754L23.5894 36.0724L34.9737 29.4997L34.8041 29.4017C31.9973 27.7812 29.1906 26.1608 26.3838 24.5457L14.9995 31.1184C17.8068 32.7338 20.614 34.3546 23.4214 35.9754ZM23.5895 36.0726L25.4726 37.1598L36.8569 30.587L34.9738 29.4998L23.5895 36.0726Z" fill="url(#paint24_linear_83_63615)"/>
<path fill-rule="evenodd" clip-rule="evenodd" d="M14.9995 31.1186C14.8253 31.0182 14.8053 30.9384 14.8057 30.7663L26.19 24.1936C26.1897 24.3656 26.2096 24.4454 26.3839 24.5458L14.9995 31.1186Z" fill="url(#paint25_linear_83_63615)"/>
<path fill-rule="evenodd" clip-rule="evenodd" d="M25.5374 35.1741V33.0876L36.9217 26.5149V28.6014L25.5374 35.1741Z" fill="url(#paint26_linear_83_63615)"/>
<path fill-rule="evenodd" clip-rule="evenodd" d="M25.2079 32.8106C25.1844 32.7978 25.1609 32.7851 25.1377 32.7717L36.522 26.199C36.5453 26.2124 36.5687 26.2251 36.5923 26.2378L36.5922 26.2379C36.7067 26.2998 36.8226 26.3626 36.9216 26.515L25.5373 33.0877C25.4383 32.9353 25.3223 32.8726 25.2078 32.8106L25.2078 32.8106L25.2079 32.8106Z" fill="url(#paint27_linear_83_63615)"/>
<path fill-rule="evenodd" clip-rule="evenodd" d="M25.1377 32.7718C23.629 31.8992 22.1203 31.0282 20.6116 30.1572L31.9959 23.5845C33.5046 24.4555 35.0133 25.3265 36.522 26.199L25.1377 32.7718Z" fill="url(#paint28_linear_83_63615)"/>
<path fill-rule="evenodd" clip-rule="evenodd" d="M16.5664 23.683C16.6336 23.6529 16.747 23.7001 16.9349 23.8083L28.3192 17.2356C28.1314 17.1274 28.0179 17.0801 27.9507 17.1102L16.5664 23.683ZM21.2177 26.2798L21.1953 26.2668L21.195 26.2667C19.775 25.4466 18.3549 24.6265 16.9348 23.8085L28.3191 17.2357C29.7394 18.0539 31.1597 18.8741 32.5799 19.6943L32.602 19.707L32.602 19.707L32.6136 19.7137L32.6244 19.7199L32.6249 19.7202C33.2962 20.1079 33.9675 20.4956 34.6388 20.8831L35.0853 20.6253C35.0853 20.8726 35.0853 21.0012 35.0362 21.0398L35.0354 21.0403C35.0316 21.0432 35.0274 21.0456 35.023 21.0475L23.6518 27.6126L23.6524 27.6121L23.6517 27.6125C23.5985 27.6543 23.4878 27.5905 23.2572 27.4574L23.2572 27.4574C22.5797 27.0663 21.9022 26.675 21.2247 26.2838L21.2212 26.2818L21.2178 26.2798L21.2177 26.2798Z" fill="url(#paint29_linear_83_63615)"/>
<path fill-rule="evenodd" clip-rule="evenodd" d="M13.0276 17.5727L14.857 18.629L26.2413 12.0563L24.4119 11L13.0276 17.5727ZM14.8576 18.6294C18.3558 20.6492 21.8539 22.669 25.3521 24.6831L36.7364 18.1104C33.2388 16.0966 29.7412 14.0771 26.2436 12.0576L26.2414 12.0563L14.8571 18.6291L14.8576 18.6294Z" fill="url(#paint30_linear_83_63615)"/>
<path fill-rule="evenodd" clip-rule="evenodd" d="M25.542 25.0119C25.5362 26.5632 25.5367 28.1182 25.5371 29.6731L25.5372 29.673L25.5374 30.9477L36.9217 24.3749L36.9215 23.1003L36.9215 23.1003C36.921 21.5454 36.9205 19.9905 36.9263 18.4392L25.542 25.0119Z" fill="url(#paint31_linear_83_63615)"/>
<path fill-rule="evenodd" clip-rule="evenodd" d="M25.542 25.012C25.5426 24.8289 25.5108 24.7745 25.3521 24.6831L36.7364 18.1104C36.8951 18.2018 36.9269 18.2562 36.9263 18.4392L25.542 25.012Z" fill="url(#paint32_linear_83_63615)"/>
<path fill-rule="evenodd" clip-rule="evenodd" d="M25.2483 35.0937C25.35 35.1527 25.4532 35.2125 25.5371 35.1743L36.9215 28.6016C36.8375 28.6398 36.7343 28.58 36.6326 28.521L25.2483 35.0937Z" fill="url(#paint33_linear_83_63615)"/>
<path fill-rule="evenodd" clip-rule="evenodd" d="M25.5374 35.1743V33.0877C25.4384 32.9353 25.3225 32.8726 25.2079 32.8107C25.1844 32.7979 25.161 32.7852 25.1377 32.7718C23.629 31.8993 22.1203 31.0283 20.6116 30.1573C20.1223 29.8748 19.6331 29.5924 19.1439 29.3099C19.1018 29.2856 19.0597 29.2617 19.0177 29.2378C18.9131 29.1783 18.8086 29.1189 18.7042 29.0539C18.467 28.9061 18.4369 28.8571 18.4326 28.5838C18.4285 28.3252 18.4293 28.0694 18.4302 27.8136C18.4305 27.7049 18.4309 27.5962 18.4309 27.4873C18.4308 26.9318 18.431 26.9315 18.9125 27.2095C19.463 27.5272 20.0135 27.8451 20.5641 28.163C22.0886 29.0432 23.6131 29.9234 25.1377 30.8022C25.161 30.8156 25.1844 30.83 25.2079 30.8444C25.3225 30.9147 25.4384 30.9858 25.5374 30.9477C25.5374 30.5229 25.5373 30.098 25.5372 29.6731C25.5367 28.1182 25.5363 26.5632 25.542 25.0119C25.5426 24.8289 25.5108 24.7745 25.3521 24.6831C21.8538 22.6689 18.3554 20.649 14.8571 18.629C14.2473 18.2769 13.6375 17.9248 13.0277 17.5728C12.9933 17.9136 12.9986 18.2781 13.0038 18.6426C13.0065 18.825 13.0091 19.0073 13.0068 19.1868C12.9997 19.7293 13.0052 19.7333 13.4862 20.011C15.6477 21.2592 17.8092 22.5072 19.9707 23.7551C21.0515 24.3791 22.1323 25.003 23.213 25.627C23.2425 25.6441 23.272 25.6617 23.3016 25.6793C23.357 25.7124 23.4125 25.7455 23.4677 25.7747C23.6352 25.8631 23.703 25.9921 23.7015 26.1821C23.6995 26.4163 23.7 26.6519 23.7005 26.8876C23.7008 26.9911 23.701 27.0946 23.701 27.198C23.7011 27.7132 23.7007 27.7134 23.2573 27.4574C22.5774 27.065 21.8976 26.6724 21.2177 26.2798C19.7901 25.4553 18.3625 24.6309 16.9348 23.8085C16.5434 23.583 16.4752 23.6222 16.4746 24.0738C16.472 25.8819 16.4718 27.6913 16.4746 29.5025C16.4752 29.9447 16.5442 30.0673 16.9161 30.2824C19.6874 31.8853 22.4588 33.4847 25.2302 35.0831C25.2363 35.0866 25.2424 35.0901 25.2486 35.0937C25.3503 35.1527 25.4535 35.2125 25.5374 35.1743ZM23.5612 38.0153C24.2215 38.3966 24.8818 38.7779 25.542 39.159C25.542 38.5044 25.542 37.8498 25.542 37.1954C25.5347 37.1916 25.5274 37.1881 25.5201 37.1845C25.5042 37.1767 25.4884 37.1689 25.4726 37.1598C24.8449 36.7975 24.2171 36.4349 23.5894 36.0725C20.7261 34.4194 17.8628 32.7662 14.9996 31.1185C14.8253 31.0181 14.8054 30.9383 14.8057 30.7663C14.8077 29.6384 14.8081 28.5096 14.8085 27.3808C14.8089 25.9271 14.8094 24.4735 14.8135 23.0219C14.8141 22.7863 14.7523 22.6801 14.551 22.5703C14.1101 22.3299 13.6684 22.076 13.2276 21.8054C13.046 21.6939 13.0015 21.7253 13.0018 21.9329C13.008 25.1739 13.0093 28.4122 13 31.6443C12.9993 31.893 13.0679 31.962 13.2578 32.0713C16.6922 34.0491 20.1267 36.0322 23.5612 38.0153Z" fill="url(#paint34_linear_83_63615)"/>
</g>
<defs>
<linearGradient id="paint0_linear_83_63615" x1="7.15095e-07" y1="11.1111" x2="45.8154" y2="41.0897" gradientUnits="userSpaceOnUse">
<stop/>
<stop offset="0.5375" stop-color="#270D0D"/>
<stop offset="1" stop-color="#140000"/>
</linearGradient>
<linearGradient id="paint1_linear_83_63615" x1="31.2302" y1="28.6016" x2="31.2302" y2="34.2863" gradientUnits="userSpaceOnUse">
<stop stop-color="#A93737"/>
<stop offset="1"/>
</linearGradient>
<linearGradient id="paint2_linear_83_63615" x1="29.2539" y1="31.4426" x2="29.2539" y2="37.1274" gradientUnits="userSpaceOnUse">
<stop stop-color="#A93737"/>
<stop offset="1"/>
</linearGradient>
<linearGradient id="paint3_linear_83_63615" x1="25.2149" y1="22.011" x2="25.2149" y2="29.0566" gradientUnits="userSpaceOnUse">
<stop stop-color="#A93737"/>
<stop offset="1"/>
</linearGradient>
<linearGradient id="paint4_linear_83_63615" x1="24.1495" y1="20.4678" x2="24.1495" y2="27.4873" gradientUnits="userSpaceOnUse">
<stop stop-color="#A93737"/>
<stop offset="1"/>
</linearGradient>
<linearGradient id="paint5_linear_83_63615" x1="27.7041" y1="20.4543" x2="27.7041" y2="29.5393" gradientUnits="userSpaceOnUse">
<stop stop-color="#A93737"/>
<stop offset="1"/>
</linearGradient>
<linearGradient id="paint6_linear_83_63615" x1="18.7067" y1="11" x2="18.7067" y2="17.61" gradientUnits="userSpaceOnUse">
<stop stop-color="#A93737"/>
<stop offset="1"/>
</linearGradient>
<linearGradient id="paint7_linear_83_63615" x1="18.6985" y1="12.0698" x2="18.6985" y2="18.2252" gradientUnits="userSpaceOnUse">
<stop stop-color="#A93737"/>
<stop offset="1"/>
</linearGradient>
<linearGradient id="paint8_linear_83_63615" x1="18.9389" y1="12.614" x2="18.9389" y2="19.0117" gradientUnits="userSpaceOnUse">
<stop stop-color="#A93737"/>
<stop offset="1"/>
</linearGradient>
<linearGradient id="paint9_linear_83_63615" x1="22.4217" y1="13.4382" x2="22.4217" y2="22.3612" gradientUnits="userSpaceOnUse">
<stop stop-color="#A93737"/>
<stop offset="1"/>
</linearGradient>
<linearGradient id="paint10_linear_83_63615" x1="27.2849" y1="17.1824" x2="27.2849" y2="24.4861" gradientUnits="userSpaceOnUse">
<stop stop-color="#A93737"/>
<stop offset="1"/>
</linearGradient>
<linearGradient id="paint11_linear_83_63615" x1="22.2134" y1="17.1104" x2="22.2134" y2="23.133" gradientUnits="userSpaceOnUse">
<stop stop-color="#A93737"/>
<stop offset="1"/>
</linearGradient>
<linearGradient id="paint12_linear_83_63615" x1="22.1666" y1="17.5012" x2="22.1666" y2="27.8811" gradientUnits="userSpaceOnUse">
<stop stop-color="#A93737"/>
<stop offset="1"/>
</linearGradient>
<linearGradient id="paint13_linear_83_63615" x1="22.3882" y1="22.9297" x2="22.3882" y2="29.289" gradientUnits="userSpaceOnUse">
<stop stop-color="#A93737"/>
<stop offset="1"/>
</linearGradient>
<linearGradient id="paint14_linear_83_63615" x1="26.7665" y1="23.7095" x2="26.7665" y2="33.5463" gradientUnits="userSpaceOnUse">
<stop stop-color="#A93737"/>
<stop offset="1"/>
</linearGradient>
<linearGradient id="paint15_linear_83_63615" x1="30.9323" y1="28.5105" x2="30.9323" y2="34.2044" gradientUnits="userSpaceOnUse">
<stop stop-color="#A93737"/>
<stop offset="1"/>
</linearGradient>
<linearGradient id="paint16_linear_83_63615" x1="24.1028" y1="25.4985" x2="24.1028" y2="36.3242" gradientUnits="userSpaceOnUse">
<stop stop-color="#A93737"/>
<stop offset="1"/>
</linearGradient>
<linearGradient id="paint17_linear_83_63615" x1="30.2444" y1="31.4426" x2="30.2444" y2="38.1165" gradientUnits="userSpaceOnUse">
<stop stop-color="#A93737"/>
<stop offset="1"/>
</linearGradient>
<linearGradient id="paint18_linear_83_63615" x1="31.2" y1="30.5869" x2="31.2" y2="38.0008" gradientUnits="userSpaceOnUse">
<stop stop-color="#A93737"/>
<stop offset="1"/>
</linearGradient>
<linearGradient id="paint19_linear_83_63615" x1="18.6962" y1="15.3601" x2="18.6962" y2="29.4442" gradientUnits="userSpaceOnUse">
<stop stop-color="#A93737"/>
<stop offset="1"/>
</linearGradient>
<linearGradient id="paint20_linear_83_63615" x1="18.8218" y1="25.0715" x2="18.8218" y2="31.1256" gradientUnits="userSpaceOnUse">
<stop stop-color="#A93737"/>
<stop offset="1"/>
</linearGradient>
<linearGradient id="paint21_linear_83_63615" x1="20.5024" y1="16.4492" x2="20.5024" y2="28.832" gradientUnits="userSpaceOnUse">
<stop stop-color="#A93737"/>
<stop offset="1"/>
</linearGradient>
<linearGradient id="paint22_linear_83_63615" x1="20.3752" y1="15.9976" x2="20.3752" y2="22.0729" gradientUnits="userSpaceOnUse">
<stop stop-color="#A93737"/>
<stop offset="1"/>
</linearGradient>
<linearGradient id="paint23_linear_83_63615" x1="19.4696" y1="15.1692" x2="19.4696" y2="21.5703" gradientUnits="userSpaceOnUse">
<stop stop-color="#A93737"/>
<stop offset="1"/>
</linearGradient>
<linearGradient id="paint24_linear_83_63615" x1="25.9296" y1="24.5457" x2="25.9296" y2="35.4554" gradientUnits="userSpaceOnUse">
<stop stop-color="#A93737"/>
<stop offset="1"/>
</linearGradient>
<linearGradient id="paint25_linear_83_63615" x1="20.5955" y1="24.1936" x2="20.5955" y2="30.183" gradientUnits="userSpaceOnUse">
<stop stop-color="#A93737"/>
<stop offset="1"/>
</linearGradient>
<linearGradient id="paint26_linear_83_63615" x1="31.2302" y1="26.5149" x2="31.2302" y2="34.0042" gradientUnits="userSpaceOnUse">
<stop stop-color="#A93737"/>
<stop offset="1"/>
</linearGradient>
<linearGradient id="paint27_linear_83_63615" x1="31.0305" y1="26.199" x2="31.0305" y2="32.157" gradientUnits="userSpaceOnUse">
<stop stop-color="#A93737"/>
<stop offset="1"/>
</linearGradient>
<linearGradient id="paint28_linear_83_63615" x1="28.5678" y1="23.5845" x2="28.5678" y2="31.5305" gradientUnits="userSpaceOnUse">
<stop stop-color="#A93737"/>
<stop offset="1"/>
</linearGradient>
<linearGradient id="paint29_linear_83_63615" x1="25.8271" y1="17.1013" x2="25.8271" y2="26.2033" gradientUnits="userSpaceOnUse">
<stop stop-color="#A93737"/>
<stop offset="1"/>
</linearGradient>
<linearGradient id="paint30_linear_83_63615" x1="24.8835" y1="11" x2="24.8835" y2="22.8344" gradientUnits="userSpaceOnUse">
<stop stop-color="#A93737"/>
<stop offset="1"/>
</linearGradient>
<linearGradient id="paint31_linear_83_63615" x1="31.2323" y1="18.4392" x2="31.2323" y2="29.2578" gradientUnits="userSpaceOnUse">
<stop stop-color="#A93737"/>
<stop offset="1"/>
</linearGradient>
<linearGradient id="paint32_linear_83_63615" x1="31.1399" y1="18.1104" x2="31.1399" y2="24.0795" gradientUnits="userSpaceOnUse">
<stop stop-color="#A93737"/>
<stop offset="1"/>
</linearGradient>
<linearGradient id="paint33_linear_83_63615" x1="31.0856" y1="28.521" x2="31.0856" y2="34.2858" gradientUnits="userSpaceOnUse">
<stop stop-color="#A93737"/>
<stop offset="1"/>
</linearGradient>
<linearGradient id="paint34_linear_83_63615" x1="19.2718" y1="17.5728" x2="19.2718" y2="36.2426" gradientUnits="userSpaceOnUse">
<stop stop-color="#A13636"/>
<stop offset="1" stop-color="#740A0A"/>
</linearGradient>
<clipPath id="clip0_83_63615">
<rect width="50" height="50" fill="white"/>
</clipPath>
</defs>
</svg>
