<svg width="16" height="16" viewBox="0 0 16 16" fill="none" xmlns="http://www.w3.org/2000/svg">
<g clip-path="url(#clip0_133_8739)">
<path d="M15.8808 6.09465C15.7881 5.7975 15.6112 5.52676 15.3673 5.30861C15.1233 5.09046 14.8206 4.93228 14.4883 4.84935C13.2412 4.55055 8.22196 4.55055 8.22196 4.55055C8.22196 4.55055 3.21544 4.54458 1.95563 4.84935C1.62335 4.93228 1.32061 5.09046 1.07667 5.30861C0.832737 5.52676 0.655852 5.7975 0.563117 6.09465C0.32671 7.23648 0.21016 8.39557 0.214988 9.5568C0.211072 10.7137 0.327619 11.8683 0.563117 13.0058C0.655852 13.303 0.832737 13.5737 1.07667 13.7919C1.32061 14.01 1.62335 14.1682 1.95563 14.2511C3.20143 14.5505 8.22196 14.5505 8.22196 14.5505C8.22196 14.5505 13.2278 14.5505 14.4883 14.2511C14.8206 14.1682 15.1233 14.01 15.3673 13.7919C15.6112 13.5737 15.7881 13.303 15.8808 13.0058C16.1114 11.8679 16.223 10.7132 16.2143 9.5568C16.2239 8.39598 16.1123 7.23689 15.8808 6.09465ZM6.62003 11.6985V7.40854L10.7976 9.5568L6.62003 11.6985Z" fill="#07acff"/>
</g>
<defs>
<clipPath id="clip0_133_8739">
<rect width="16" height="16" fill="white"/>
</clipPath>
</defs>
</svg>
