<svg width="44" height="44" viewBox="0 0 44 44" fill="none" xmlns="http://www.w3.org/2000/svg">
<g clip-path="url(#clip0_1_84)">
<path d="M22 43.5C33.8741 43.5 43.5 33.8741 43.5 22C43.5 10.1259 33.8741 0.5 22 0.5C10.1259 0.5 0.5 10.1259 0.5 22C0.5 33.8741 10.1259 43.5 22 43.5Z" fill="#F4F4FF" stroke="#E9E9FF"/>
<path fill-rule="evenodd" clip-rule="evenodd" d="M32.2923 17.0291L23.8111 8.54785L21.9559 10.4031L25.9583 14.4054H18.6016C14.2114 14.4054 10.6523 17.9645 10.6523 22.3547V23.6666H13.276V22.3547C13.276 19.4135 15.6604 17.0291 18.6016 17.0291H32.2923ZM11.7741 27.6403L20.2553 36.1216L22.1105 34.2664L18.1081 30.264H25.4648C29.855 30.264 33.4141 26.705 33.4141 22.3147V21.0029H30.7904V22.3147C30.7904 25.256 28.406 27.6403 25.4648 27.6403H11.7741Z" fill="#F36C17"/>
<path fill-rule="evenodd" clip-rule="evenodd" d="M32.2923 17.0291L23.8111 8.54785L21.9559 10.4031L25.9583 14.4054H18.6016C14.2114 14.4054 10.6523 17.9645 10.6523 22.3547V23.6666H13.276V22.3547C13.276 19.4135 15.6604 17.0291 18.6016 17.0291H32.2923ZM11.7741 27.6403L20.2553 36.1216L22.1105 34.2664L18.1081 30.264H25.4648C29.855 30.264 33.4141 26.705 33.4141 22.3147V21.0029H30.7904V22.3147C30.7904 25.256 28.406 27.6403 25.4648 27.6403H11.7741Z" fill="url(#paint0_linear_1_84)"/>
</g>
<defs>
<linearGradient id="paint0_linear_1_84" x1="9.5" y1="24.9996" x2="34.5" y2="24.9996" gradientUnits="userSpaceOnUse">
<stop stop-color="#E23B17"/>
<stop offset="1" stop-color="#F36C17"/>
</linearGradient>
<clipPath id="clip0_1_84">
<rect width="44" height="44" fill="white"/>
</clipPath>
</defs>
</svg>
