<svg width="454" height="212" viewBox="0 0 454 212" fill="none" xmlns="http://www.w3.org/2000/svg">
<rect x="225" width="4" height="100" rx="2" fill="url(#paint0_linear_765_16800)"/>
<rect x="216" y="16" width="4" height="101" rx="2" fill="url(#paint1_linear_765_16800)"/>
<rect x="234" y="16" width="4" height="101" rx="2" fill="url(#paint2_linear_765_16800)"/>
<path d="M165.475 64.3067C180.65 44.7027 201.479 37.574 211 38.0195V53.6137C208.322 54.5048 191.808 56.2869 178.419 67.4255C160.071 82.6884 154.317 107.97 154.318 120C150.896 110.644 149.003 85.5874 165.475 64.3067Z" fill="url(#paint3_linear_765_16800)"/>
<path d="M287.525 64.3067C272.35 44.7027 251.521 37.574 242 38.0195V53.6137C244.678 54.5048 261.192 56.2869 274.581 67.4255C292.929 82.6884 298.683 107.97 298.682 120C302.104 110.644 303.997 85.5874 287.525 64.3067Z" fill="url(#paint4_linear_765_16800)"/>
<path fill-rule="evenodd" clip-rule="evenodd" d="M211 28.5103C174.513 35.7209 147 67.8975 147 106.5C147 150.407 182.593 186 226.5 186C270.407 186 306 150.407 306 106.5C306 67.8975 278.487 35.7209 242 28.5103V29.53C277.931 36.7259 305 68.4518 305 106.5C305 149.854 269.854 185 226.5 185C183.146 185 148 149.854 148 106.5C148 68.4518 175.069 36.7259 211 29.53V28.5103Z" fill="url(#paint5_linear_765_16800)"/>
<path d="M115 84.7755C108.088 83.8367 101.415 80.6531 96.1108 75.2245C90.3284 69.3061 87.1646 61.7415 86.5931 54C85.7822 61.2789 82.6451 68.3265 77.195 73.9048C71.8113 79.415 65.0187 82.6122 58 83.4966L58.0798 83.5782C65.444 84.2721 72.6222 87.5102 78.2584 93.2789C83.8946 99.0476 87.0583 106.395 87.7362 113.932L87.8027 114C88.6269 106.748 91.764 99.7143 97.2008 94.1497C102.212 89.0068 108.473 85.8776 115 84.7755Z" fill="#5B0B04"/>
<path d="M76 101.123C74.9114 100.973 73.8608 100.44 73.0127 99.5383C72.1013 98.5546 71.5949 97.2978 71.5063 96C71.3797 97.2158 70.8861 98.3907 70.0253 99.3197C69.1772 100.235 68.1013 100.768 67 100.918L67.0127 100.932C68.1772 101.041 69.3038 101.587 70.2025 102.544C71.1013 103.5 71.5949 104.73 71.6962 105.986L71.7089 106C71.8354 104.798 72.3291 103.623 73.1899 102.694C73.9873 101.82 74.9747 101.301 76 101.123Z" fill="#5B0B04"/>
<path d="M113 72.203C111.177 71.951 109.422 71.1111 108.032 69.6553C106.506 68.0735 105.682 66.0577 105.52 64C105.304 65.9458 104.481 67.8215 103.05 69.3053C101.632 70.7752 99.8497 71.629 98 71.867L98.027 71.895C99.9712 72.077 101.848 72.9449 103.333 74.4847C104.818 76.0245 105.642 77.9843 105.831 79.986L105.844 80C106.06 78.0682 106.884 76.1925 108.315 74.7087C109.638 73.3368 111.285 72.4969 113 72.203Z" fill="#5B0B04"/>
<path d="M385 86.7755C378.088 85.8367 371.415 82.6531 366.111 77.2245C360.328 71.3061 357.165 63.7415 356.593 56C355.782 63.2789 352.645 70.3265 347.195 75.9048C341.811 81.415 335.019 84.6122 328 85.4966L328.08 85.5782C335.444 86.2721 342.622 89.5102 348.258 95.2789C353.895 101.048 357.058 108.395 357.736 115.932L357.803 116C358.627 108.748 361.764 101.714 367.201 96.1497C372.212 91.0068 378.473 87.8776 385 86.7755Z" fill="#5B0B04"/>
<path d="M333 121.123C331.911 120.973 330.861 120.44 330.013 119.538C329.101 118.555 328.595 117.298 328.506 116C328.38 117.216 327.886 118.391 327.025 119.32C326.177 120.235 325.101 120.768 324 120.918L324.013 120.932C325.177 121.041 326.304 121.587 327.203 122.544C328.101 123.5 328.595 124.73 328.696 125.986L328.709 126C328.835 124.798 329.329 123.623 330.19 122.694C330.987 121.82 331.975 121.301 333 121.123Z" fill="#5B0B04"/>
<path d="M385 39.203C383.177 38.951 381.422 38.1111 380.032 36.6553C378.506 35.0735 377.682 33.0577 377.52 31C377.304 32.9458 376.481 34.8215 375.05 36.3053C373.632 37.7752 371.85 38.629 370 38.867L370.027 38.895C371.971 39.077 373.848 39.9449 375.333 41.4847C376.818 43.0245 377.642 44.9843 377.831 46.986L377.844 47C378.06 45.0682 378.884 43.1925 380.315 41.7087C381.638 40.3368 383.285 39.4969 385 39.203Z" fill="#5B0B04"/>
<path d="M11 124.241C10.237 124.381 9.97138 123.649 9.45861 123.354C7.67319 122.325 5.94338 121.196 4.21974 120.07C3.15714 119.374 2.14396 118.615 0.988692 118.063C0.750842 117.95 0.633462 117.632 0.636551 117.273C0.658174 111.104 0.658174 104.938 0.63964 98.7691C0.636551 98.1801 0.976336 98.0131 1.39952 97.7338C2.61348 96.9384 3.83053 96.1308 5.04758 95.3506C6.34803 94.5187 7.6701 93.6868 9.0416 92.9461C9.47714 92.7093 9.90651 92.4087 10.2308 92.0413C10.4718 91.7681 10.7065 91.7529 11 91.759C11 91.507 11 91.252 11 91C10.2463 91.1093 9.80766 91.7317 9.20223 92.0869C7.68555 92.9734 6.23374 93.9722 4.75104 94.9164C3.57415 95.6663 2.39726 96.4101 1.20801 97.1388C0.482103 97.582 -0.0121298 98.0192 0.000226021 99.0393C0.0681829 105.108 0.0527382 111.177 0.00640392 117.246C0.000226021 117.92 0.231897 118.351 0.744664 118.603C1.89376 119.165 2.95636 119.881 4.01587 120.555C5.15878 121.284 6.32332 122.016 7.43843 122.808C8.19214 123.342 9.00762 123.798 9.8262 124.238C10.2432 124.457 10.4965 124.909 11 125C11 124.748 11 124.493 11 124.241Z" fill="#FF0000"/>
<path d="M14 5H3V15.5" stroke="#FF2F2F" stroke-width="2"/>
<path d="M14 211H3V200.5" stroke="#FF2F2F" stroke-width="2"/>
<path d="M443 124.241C443.763 124.381 444.029 123.649 444.541 123.354C446.327 122.325 448.057 121.196 449.78 120.07C450.843 119.374 451.856 118.615 453.011 118.063C453.249 117.95 453.367 117.632 453.363 117.273C453.342 111.104 453.342 104.938 453.36 98.7691C453.363 98.1801 453.024 98.0131 452.6 97.7338C451.387 96.9384 450.169 96.1308 448.952 95.3506C447.652 94.5187 446.33 93.6868 444.958 92.9461C444.523 92.7093 444.093 92.4087 443.769 92.0413C443.528 91.7681 443.293 91.7529 443 91.759C443 91.507 443 91.252 443 91C443.754 91.1093 444.192 91.7317 444.798 92.0869C446.314 92.9734 447.766 93.9722 449.249 94.9164C450.426 95.6663 451.603 96.4101 452.792 97.1388C453.518 97.582 454.012 98.0192 454 99.0393C453.932 105.108 453.947 111.177 453.994 117.246C454 117.92 453.768 118.351 453.255 118.603C452.106 119.165 451.044 119.881 449.984 120.555C448.841 121.284 447.677 122.016 446.562 122.808C445.808 123.342 444.992 123.798 444.174 124.238C443.757 124.457 443.503 124.909 443 125C443 124.748 443 124.493 443 124.241Z" fill="#FF0000"/>
<path d="M440 5H451V15.5" stroke="#FF2F2F" stroke-width="2"/>
<path d="M440 211H451V200.5" stroke="#FF2F2F" stroke-width="2"/>
<path d="M269.75 115C269.75 138.536 250.536 157.75 227 157.75C203.464 157.75 184.25 138.536 184.25 115C184.25 91.4639 203.464 72.25 227 72.25C250.536 72.25 269.75 91.4639 269.75 115Z" stroke="#F36C17" stroke-opacity="0.8" stroke-width="0.5"/>
<path d="M258.75 114.5C258.75 132.31 244.31 146.75 226.5 146.75C208.69 146.75 194.25 132.31 194.25 114.5C194.25 96.6903 208.69 82.25 226.5 82.25C244.31 82.25 258.75 96.6903 258.75 114.5Z" stroke="#F36C17" stroke-opacity="0.5" stroke-width="0.5"/>
<path d="M209 101.341C209 103.78 211.973 105.732 216.927 106.707C221.882 107.683 227.332 107.683 232.287 106.707C237.242 105.732 240.215 103.78 240.215 101.341C240.215 97.9268 233.278 95 224.855 95C215.937 95 209 97.9268 209 101.341ZM228.174 114.859C229.596 114.769 230.859 114.011 232.1 113.311C233.593 112.468 235.238 111.889 237.033 111.49C238.444 111.176 240.215 110.592 240.215 109.146V103.293C240.215 106.707 233.278 109.146 224.855 109.146C216.432 109.146 209.495 106.22 209.495 102.805V108.171C209.495 111.42 215.776 114.227 223.641 114.492C224.446 114.519 225.247 114.63 226.043 114.754C226.779 114.869 227.467 114.904 228.174 114.859ZM209 111.098V116.463C209 119.878 215.937 122.805 224.36 122.805H224.398C225.25 122.805 225.982 122.224 226.217 121.405C226.316 121.059 226.423 120.717 226.544 120.381C226.974 119.185 226.126 117.439 224.855 117.439C215.937 117.439 209 114.512 209 111.098ZM224.855 124.756C216.432 124.756 209.495 122.317 209.495 118.415V123.78C209.495 127.195 216.432 130.122 224.855 130.122C225.698 130.122 226.27 129.123 226.089 128.3C225.912 127.497 225.864 126.631 225.851 125.747C225.843 125.2 225.402 124.756 224.855 124.756ZM247.201 117.953C246.851 117.598 246.501 117.241 246.149 116.888C243.658 114.393 239.954 113.601 236.251 114.512C232.287 115.488 229.81 118.415 228.819 121.829C227.828 125.732 228.819 129.634 231.792 132.073C235.755 135.976 242.692 135.976 246.656 132.073C250.925 128.337 251.107 121.918 247.201 117.953ZM241.701 127.683C240.577 128.789 237.87 128.789 236.746 127.683C235.638 126.592 235.638 123.896 236.746 122.805C237.87 121.698 240.577 121.698 241.701 122.805C242.668 123.757 242.668 126.731 241.701 127.683Z" fill="url(#paint6_linear_765_16800)"/>
<path fill-rule="evenodd" clip-rule="evenodd" d="M338.819 180.2C338.149 180.2 337.606 179.657 337.606 178.987C337.606 178.317 338.149 177.774 338.819 177.774C339.489 177.774 340.032 178.317 340.032 178.987C340.032 179.657 339.489 180.2 338.819 180.2ZM338.819 180.806C337.815 180.806 337 179.992 337 178.987C337 177.982 337.815 177.167 338.819 177.167C339.824 177.167 340.639 177.982 340.639 178.987C340.639 179.992 339.824 180.806 338.819 180.806Z" fill="#FF0000"/>
<circle cx="1.81942" cy="1.81942" r="1.81942" transform="matrix(-1 0 0 1 364.116 177.168)" fill="#FF0000"/>
<path fill-rule="evenodd" clip-rule="evenodd" d="M347.027 178.38H340.369V178.982H346.775L350.12 182.289H354.399L357.136 179.583H362.634V178.982H356.884L354.147 181.687H350.372L347.027 178.38Z" fill="#FF0000"/>
<circle cx="1.81942" cy="1.81942" r="1.81942" transform="matrix(-1 0 0 1 417 176.887)" fill="#FF0000"/>
<path fill-rule="evenodd" clip-rule="evenodd" d="M396.902 175H393.182L389.536 178.697H364.074V179.313H389.788L393.434 175.616H396.65L400.296 179.313H415.518V178.697H400.548L396.902 175Z" fill="#FF0000"/>
<path fill-rule="evenodd" clip-rule="evenodd" d="M115.181 181.2C115.85 181.2 116.393 180.657 116.393 179.987C116.393 179.317 115.85 178.774 115.181 178.774C114.511 178.774 113.968 179.317 113.968 179.987C113.968 180.657 114.511 181.2 115.181 181.2ZM115.181 181.806C116.185 181.806 117 180.992 117 179.987C117 178.982 116.185 178.167 115.181 178.167C114.176 178.167 113.361 178.982 113.361 179.987C113.361 180.992 114.176 181.806 115.181 181.806Z" fill="#FF0000"/>
<circle cx="91.7032" cy="179.987" r="1.81942" fill="#FF0000"/>
<path fill-rule="evenodd" clip-rule="evenodd" d="M106.973 179.38H113.631V179.982H107.225L103.879 183.289H99.6012L96.8642 180.583H91.3662V179.982H97.1161L99.8532 182.687H103.627L106.973 179.38Z" fill="#FF0000"/>
<circle cx="38.8194" cy="179.706" r="1.81942" fill="#FF0000"/>
<path fill-rule="evenodd" clip-rule="evenodd" d="M57.0983 176H60.8175L64.4641 179.697H89.9262V180.313H64.2123L60.5658 176.616H57.3501L53.7035 180.313H38.4824V179.697H53.4518L57.0983 176Z" fill="#FF0000"/>
<defs>
<linearGradient id="paint0_linear_765_16800" x1="227" y1="0" x2="227" y2="100" gradientUnits="userSpaceOnUse">
<stop stop-color="#F36C17"/>
<stop offset="1" stop-opacity="0"/>
</linearGradient>
<linearGradient id="paint1_linear_765_16800" x1="218" y1="16" x2="218" y2="117" gradientUnits="userSpaceOnUse">
<stop stop-color="#F36C17"/>
<stop offset="1" stop-opacity="0"/>
</linearGradient>
<linearGradient id="paint2_linear_765_16800" x1="236" y1="16" x2="236" y2="117" gradientUnits="userSpaceOnUse">
<stop stop-color="#F36C17"/>
<stop offset="1" stop-opacity="0"/>
</linearGradient>
<linearGradient id="paint3_linear_765_16800" x1="181.5" y1="38" x2="181.5" y2="120" gradientUnits="userSpaceOnUse">
<stop stop-color="#F36C17"/>
<stop offset="1" stop-opacity="0"/>
</linearGradient>
<linearGradient id="paint4_linear_765_16800" x1="271.5" y1="38" x2="271.5" y2="120" gradientUnits="userSpaceOnUse">
<stop stop-color="#F36C17"/>
<stop offset="1" stop-opacity="0"/>
</linearGradient>
<linearGradient id="paint5_linear_765_16800" x1="226.5" y1="28.5103" x2="226.5" y2="186" gradientUnits="userSpaceOnUse">
<stop stop-color="#F36C17"/>
<stop offset="1" stop-color="#A22B21" stop-opacity="0.17"/>
</linearGradient>
<linearGradient id="paint6_linear_765_16800" x1="229.5" y1="95" x2="229.5" y2="135" gradientUnits="userSpaceOnUse">
<stop stop-color="#F36C17"/>
<stop offset="1" stop-color="#4C1612" stop-opacity="0.21"/>
</linearGradient>
</defs>
</svg>
