<svg width="24" height="24" viewBox="0 0 24 24" fill="none" xmlns="http://www.w3.org/2000/svg">
<circle cx="12" cy="12" r="12" fill="#ffffff00"/>
<path d="M7.16667 8.4H6.5C6.36739 8.4 6.24021 8.35259 6.14645 8.2682C6.05268 8.18381 6 8.06935 6 7.95C6 7.83065 6.05268 7.71619 6.14645 7.6318C6.24021 7.54741 6.36739 7.5 6.5 7.5H17.5C17.6326 7.5 17.7598 7.54741 17.8536 7.6318C17.9473 7.71619 18 7.83065 18 7.95C18 8.06935 17.9473 8.18381 17.8536 8.2682C17.7598 8.35259 17.6326 8.4 17.5 8.4H8.16667V16.35C8.16667 16.4485 8.18822 16.546 8.2301 16.637C8.27198 16.728 8.33336 16.8107 8.41074 16.8803C8.48813 16.95 8.57999 17.0052 8.6811 17.0429C8.7822 17.0806 8.89057 17.1 9 17.1H15C15.1094 17.1 15.2178 17.0806 15.3189 17.0429C15.42 17.0052 15.5119 16.95 15.5893 16.8803C15.6666 16.8107 15.728 16.728 15.7699 16.637C15.8118 16.546 15.8333 16.4485 15.8333 16.35V9.75C15.8333 9.63065 15.886 9.51619 15.9798 9.4318C16.0735 9.34741 16.2007 9.3 16.3333 9.3C16.4659 9.3 16.5931 9.34741 16.6869 9.4318C16.7807 9.51619 16.8333 9.63065 16.8333 9.75V16.35C16.8333 17.2612 16.0125 18 15 18H9C7.9875 18 7.16667 17.2612 7.16667 16.35V8.4ZM10.6667 6.9C10.5341 6.9 10.4069 6.85259 10.3131 6.7682C10.2193 6.68381 10.1667 6.56935 10.1667 6.45C10.1667 6.33065 10.2193 6.21619 10.3131 6.1318C10.4069 6.04741 10.5341 6 10.6667 6H13.3333C13.4659 6 13.5931 6.04741 13.6869 6.1318C13.7807 6.21619 13.8333 6.33065 13.8333 6.45C13.8333 6.56935 13.7807 6.68381 13.6869 6.7682C13.5931 6.85259 13.4659 6.9 13.3333 6.9H10.6667ZM10.1667 10.95C10.1667 10.8307 10.2193 10.7162 10.3131 10.6318C10.4069 10.5474 10.5341 10.5 10.6667 10.5C10.7993 10.5 10.9265 10.5474 11.0202 10.6318C11.114 10.7162 11.1667 10.8307 11.1667 10.95V14.55C11.1667 14.6693 11.114 14.7838 11.0202 14.8682C10.9265 14.9526 10.7993 15 10.6667 15C10.5341 15 10.4069 14.9526 10.3131 14.8682C10.2193 14.7838 10.1667 14.6693 10.1667 14.55V10.95ZM12.8333 10.95C12.8333 10.8307 12.886 10.7162 12.9798 10.6318C13.0735 10.5474 13.2007 10.5 13.3333 10.5C13.4659 10.5 13.5931 10.5474 13.6869 10.6318C13.7807 10.7162 13.8333 10.8307 13.8333 10.95V14.55C13.8333 14.6693 13.7807 14.7838 13.6869 14.8682C13.5931 14.9526 13.4659 15 13.3333 15C13.2007 15 13.0735 14.9526 12.9798 14.8682C12.886 14.7838 12.8333 14.6693 12.8333 14.55V10.95Z" fill="#F36C17"/>
</svg>
