<svg width="24" height="24" viewBox="0 0 24 24" fill="none" xmlns="http://www.w3.org/2000/svg">
<path d="M12 0C18.6281 0 24 5.37188 24 12C24 18.6281 18.6281 24 12 24C5.37187 24 0 18.6281 0 12C0 5.37188 5.37422 0 12 0Z" fill="#DDDDDD"/>
<path d="M14.5517 13.4579C14.5736 13.4733 14.5951 13.4904 14.6144 13.5106L17.1003 15.9957C17.2676 16.1629 17.2702 16.4433 17.099 16.6144C17.0586 16.6553 17.0104 16.6878 16.9573 16.7101C16.9043 16.7323 16.8473 16.7439 16.7897 16.744C16.7322 16.7442 16.6752 16.733 16.622 16.711C16.5688 16.6891 16.5204 16.6569 16.4797 16.6162L13.9938 14.1307C13.9746 14.1114 13.9573 14.0904 13.942 14.0679C13.1579 14.7129 12.1736 15.0648 11.1581 15.0632C8.7341 15.0632 6.76917 13.0985 6.76917 10.6749C6.76917 8.25125 8.7341 6.28662 11.1581 6.28662C13.5822 6.28662 15.5471 8.25125 15.5471 10.6749C15.5471 11.7312 15.174 12.7005 14.5517 13.4579ZM11.1581 14.1855C12.0893 14.1855 12.9824 13.8156 13.6409 13.1573C14.2994 12.4989 14.6693 11.606 14.6693 10.6749C14.6693 9.74382 14.2994 8.85088 13.6409 8.19251C12.9824 7.53414 12.0893 7.16428 11.1581 7.16428C10.2269 7.16428 9.33383 7.53414 8.67536 8.19251C8.01688 8.85088 7.64696 9.74382 7.64696 10.6749C7.64696 11.606 8.01688 12.4989 8.67536 13.1573C9.33383 13.8156 10.2269 14.1855 11.1581 14.1855Z" fill="#000000"/>
</svg>
