<svg width="88" height="88" viewBox="0 0 88 88" fill="none" xmlns="http://www.w3.org/2000/svg">
<circle cx="44" cy="44" r="44" fill="url(#paint0_linear_460_15104)"/>
<path d="M65.6516 54.7969L65.6939 36.28C65.7007 33.3079 63.2869 30.8931 60.3025 30.8863C58.8628 30.883 57.4814 31.4518 56.4647 32.4667L39.5306 49.3682C38.8839 50.0138 38.8865 51.0596 39.5365 51.7019L40.8555 53.0052C44.0821 56.1935 49.2872 56.1926 52.5126 53.0031L58.9212 46.6659C59.2254 46.3651 59.7142 46.3579 60.0272 46.6496C60.353 46.9533 60.3648 47.4642 60.0535 47.7825L57.8915 49.9929C57.5733 50.3181 57.5795 50.8385 57.9052 51.1562L62.839 55.9702C63.8848 56.9905 65.6483 56.2551 65.6516 54.7969Z" fill="white"/>
<path d="M22.0548 32.4557L22.0126 50.9416C22.0057 53.9283 24.4254 56.355 27.4171 56.3618C28.8503 56.3651 30.2263 55.8013 31.2439 54.7937L48.1692 38.0358C48.8219 37.3895 48.822 36.3361 48.1696 35.6896L46.8564 34.3889C43.6291 31.1919 38.4227 31.1928 35.1965 34.391L28.7864 40.7456C28.4822 41.0473 27.9934 41.0545 27.6803 40.762C27.3544 40.4575 27.3425 39.9451 27.654 39.6259L29.8236 37.4022C30.139 37.079 30.1362 36.5628 29.8173 36.243L24.883 31.2938C23.8427 30.2505 22.0582 30.9836 22.0548 32.4557Z" fill="white"/>
<defs>
<linearGradient id="paint0_linear_460_15104" x1="-2.19997e-09" y1="-0.212581" x2="144.281" y2="3.17627" gradientUnits="userSpaceOnUse">
<stop stop-color="#06C17E"/>
<stop offset="1" stop-color="#06C1A8"/>
</linearGradient>
</defs>
</svg>
