<svg width="88" height="88" viewBox="0 0 88 88" fill="none" xmlns="http://www.w3.org/2000/svg">
<circle cx="44" cy="44" r="44" fill="url(#paint0_linear_460_15109)"/>
<path d="M41.5751 38.9479C41.4196 38.8643 41.269 38.7666 41.1091 38.6689C41.0223 38.8039 41.0131 38.9343 41.0267 39.0693C41.1593 40.3721 42.1645 41.4936 43.6129 41.4608C44.8283 41.4331 46.1211 40.3348 46.0024 38.8875C45.9156 37.8455 45.1297 36.8962 43.9326 36.6168C43.7956 36.5841 43.7315 36.6495 43.759 36.789C43.775 36.8676 43.7978 36.9453 43.8206 37.023C43.8433 37.1012 43.8663 37.1793 43.8824 37.2589C43.9285 37.4893 43.9359 37.716 43.8899 37.9346C43.8587 38.0827 43.8029 38.2272 43.7179 38.3663C43.2702 39.1065 42.3334 39.3623 41.5751 38.9479Z" fill="white"/>
<path fill-rule="evenodd" clip-rule="evenodd" d="M49.3651 47.0447C49.0586 47.032 48.7521 47.0179 48.4455 47.0038C47.8519 46.9765 47.2584 46.9488 46.6648 46.9334C46.1503 46.9188 45.6379 46.9134 45.125 46.9115C44.8314 46.9102 44.5376 46.9102 44.2433 46.9102L43.3418 46.9093C42.0099 46.9079 40.676 46.9065 39.3453 46.9334L38.7077 46.9474C38.2091 46.9593 37.7116 46.9706 37.2116 46.9706C36.933 46.9706 36.6632 46.9193 36.4074 46.8029C36.346 46.7757 36.2922 46.743 36.2458 46.7043C36.2155 46.6789 36.1883 46.6507 36.164 46.6203C36.1394 46.5894 36.118 46.5557 36.0993 46.5194C36.0823 46.4862 36.0678 46.4503 36.0555 46.4121C36.0131 46.2804 35.9839 46.1486 35.9676 46.0154C35.9507 45.8755 35.948 45.7337 35.9596 45.5883C36.0145 44.8812 36.0602 44.1737 36.1104 43.4666L36.1744 42.5751C36.2287 41.8298 36.2829 41.0846 36.3253 40.3398C36.3645 39.7004 36.4239 39.0615 36.483 38.4222L36.5124 38.1059C36.6405 36.7099 37.0608 35.4258 37.8923 34.2906C38.2441 33.8112 38.6599 33.3877 39.1168 33.011C39.5693 32.6338 39.5327 32.6479 39.2859 32.1544C38.9111 31.4196 38.3037 30.917 37.5634 30.5867C37.1797 30.419 36.773 30.3168 36.3527 30.2795C36.2133 30.2686 36.0819 30.2786 35.9583 30.3186C35.871 30.3468 35.7878 30.3899 35.7084 30.4517C35.6856 30.4704 35.6627 30.484 35.6399 30.4981C35.2424 30.7866 34.9363 30.7166 34.6072 30.3168C34.4475 30.1259 34.4475 29.9351 34.5889 29.7351C34.7214 29.5533 34.8997 29.4279 35.1098 29.3443C35.2287 29.293 35.3383 29.3207 35.4298 29.4048C35.5643 29.5297 35.7126 29.6138 35.8706 29.6724C36.0772 29.7492 36.3003 29.7833 36.5307 29.8096C38.0156 29.9723 39.0802 30.7635 39.7977 32.0708L39.8091 32.0926L39.818 32.1108C39.8238 32.1226 39.8303 32.1344 39.8388 32.1453C39.953 32.3362 40.0215 32.3594 40.2042 32.2476C40.5516 32.0431 40.917 31.8895 41.2962 31.7591C42.1781 31.4614 43.0781 31.3265 44.0149 31.3915C45.0565 31.4705 46.0205 31.7777 46.9343 32.2803C46.9664 32.2989 46.9983 32.3176 47.0349 32.3362C47.3457 32.4989 47.4003 32.4757 47.5603 32.1685C48.2273 30.8984 49.2737 30.1768 50.6718 29.9628L50.7131 29.955C50.7465 29.9491 50.7811 29.9441 50.8135 29.9441C51.1972 29.9441 51.5307 29.856 51.7957 29.5347C51.9602 29.3348 52.2069 29.2648 52.4675 29.4048C52.7414 29.5488 52.9105 29.7674 52.9288 30.0841C52.9471 30.3677 52.6685 30.6421 52.3394 30.6794C52.1431 30.703 51.951 30.6608 51.7913 30.5631C51.4622 30.3631 51.1287 30.3772 50.7586 30.4281C49.7397 30.5726 48.9493 31.0797 48.305 31.8568C48.1452 32.0476 48.0036 32.2526 47.8847 32.4711C47.7477 32.727 47.7477 32.7688 47.9715 32.9551C48.1749 33.1214 48.3652 33.3014 48.5444 33.4918C48.8161 33.7799 49.0617 34.0925 49.2875 34.4206C49.9773 35.4258 50.4569 36.5195 50.5803 37.7569C50.6626 38.5853 50.7128 39.4182 50.7541 40.2512C50.7804 40.8124 50.8282 41.3736 50.8757 41.9339L50.8764 41.9448L50.877 41.9543C50.9027 42.2556 50.9283 42.5564 50.9504 42.8568C50.9732 43.1381 50.9937 43.4189 51.0142 43.6997L51.0196 43.7706C51.0386 44.0292 51.0575 44.2878 51.0785 44.5463C51.0903 44.6863 51.1037 44.8253 51.1173 44.9639C51.1356 45.1484 51.1541 45.3329 51.1697 45.5188C51.1773 45.6028 51.1847 45.6869 51.1891 45.771C51.1929 45.8405 51.1947 45.91 51.1927 45.9795C51.1876 46.2113 51.1298 46.4131 51.0276 46.5757C50.8996 46.7789 50.7017 46.9211 50.4496 46.9847C50.365 47.0061 50.2745 47.0183 50.1783 47.0215C50.0676 47.0256 49.957 47.0261 49.8461 47.0256C49.6913 47.0247 49.5358 47.0215 49.3787 47.0215V47.0311L49.3651 47.0447ZM47.6379 38.9811C47.7796 36.7754 45.6778 34.8118 43.6356 34.7791C41.0586 34.7373 39.4093 36.7895 39.3636 38.9761C39.3178 41.1118 41.0495 43.1876 43.4893 43.2199C45.8012 43.2526 47.7156 41.3495 47.6335 38.9811H47.6379Z" fill="white"/>
<path fill-rule="evenodd" clip-rule="evenodd" d="M46.1987 22.085C46.5213 22.1505 46.8457 22.2032 47.1697 22.2559C47.7452 22.349 48.3195 22.4422 48.8808 22.6058C50.8866 23.1924 52.7508 24.0763 54.4503 25.3096C56.1409 26.5333 57.5025 28.0642 58.6492 29.8046C59.49 31.0843 60.1662 32.443 60.6872 33.8807C60.8308 34.277 60.9591 34.6769 61.074 35.0809C61.2732 35.7816 61.4321 36.4936 61.5597 37.2171C61.7379 38.2268 61.8841 39.241 61.9345 40.2698C61.9755 41.1118 61.9709 41.9589 61.9253 42.8009C61.8339 44.4809 61.3997 46.0909 61.0252 47.715C60.9607 47.9894 60.898 48.2648 60.8322 48.5397C60.7441 48.9082 60.6506 49.2763 60.5408 49.6412C60.4676 49.8925 60.4676 49.9202 60.6825 50.0738C60.7929 50.1529 60.9049 50.2306 61.0173 50.3078L61.2045 50.4351L61.2112 50.4392C61.4439 50.5978 61.6768 50.7568 61.9024 50.9254C63.1178 51.8374 64.2692 52.8194 65.2104 54.0291C65.4433 54.3317 65.6443 54.6575 65.8181 55.0015C65.8775 55.1178 65.9277 55.2482 65.9642 55.3741C66.02 55.5713 66.0118 55.7167 65.9259 55.8399C65.8781 55.9085 65.8063 55.9703 65.7084 56.0298C65.5834 56.1057 65.4543 56.1698 65.322 56.2266C65.0962 56.3229 64.8617 56.397 64.6255 56.4674C63.5564 56.7837 62.4643 56.9887 61.3678 57.1609C60.55 57.2908 59.7412 57.4399 58.9189 57.533C58.398 57.5935 57.8818 57.6494 57.3608 57.6726C57.3059 57.6726 57.2466 57.6726 57.1917 57.6821C57.0228 57.7098 56.9907 57.7612 57.073 57.9098C57.1507 58.0543 57.2421 58.1892 57.3334 58.3242L58.0709 59.4166C58.7027 60.3522 59.335 61.2892 59.9697 62.2235C60.1754 62.5307 60.3079 62.8611 60.3398 63.2378C60.3717 63.6381 60.2439 63.908 59.8965 64.0939C59.857 64.1148 59.8169 64.1343 59.776 64.1525C59.6703 64.1998 59.5596 64.2379 59.4443 64.2616C58.9827 64.3638 58.599 64.252 58.3112 63.8567C58.1238 63.6009 57.9594 63.3355 57.795 63.0656C57.3247 62.298 56.8544 61.5287 56.3841 60.7594L55.2044 58.8313L54.8343 58.2169C54.7245 58.0311 54.5646 57.952 54.3544 57.9888C54.2618 58.0034 54.169 58.0161 54.076 58.027C53.9602 58.0406 53.8442 58.0515 53.728 58.0597C53.2934 58.0915 52.8566 58.0915 52.4217 58.0915H45.2669C45.0217 58.0915 44.9061 58.0915 44.8521 58.1501C44.7973 58.2097 44.8053 58.3296 44.8053 58.5705V64.5592L44.8057 64.6437C44.8069 64.7973 44.8082 64.9505 44.7734 65.1036C44.627 65.7507 44.2023 66.0529 43.5122 65.9924C42.8635 65.9365 42.53 65.583 42.4249 64.9318C42.393 64.741 42.3838 64.5501 42.3838 64.3593V58.4869C42.3838 58.1333 42.3472 58.0961 41.9863 58.0961L41.4823 58.0929L40.5268 58.0906C39.9202 58.0897 39.3136 58.0883 38.707 58.0824C38.4797 58.0802 38.2523 58.077 38.025 58.0729C37.3738 58.0588 36.7239 58.037 36.0738 58.0152C35.4148 57.9929 34.7558 57.9706 34.0956 57.9566C33.6889 57.947 33.2822 57.9052 32.8758 57.8589C32.588 57.8261 32.4189 57.9238 32.2863 58.1847C31.9481 58.8499 31.5919 59.5061 31.2262 60.1573C30.7178 61.0748 30.2006 61.989 29.6837 62.9024L29.2844 63.6099C29.1793 63.7917 29.0651 63.9685 28.9145 64.1175C28.6814 64.3502 28.4163 64.4479 28.0828 64.387C27.7127 64.322 27.37 64.1966 27.0503 63.9916C26.6664 63.7449 26.5385 63.3914 26.6117 62.9492C26.6483 62.7306 26.7351 62.5257 26.8585 62.3398C27.1645 61.865 27.4706 61.3906 27.7859 60.9253C28.293 60.1805 28.7499 59.4084 29.2433 58.6545C29.4169 58.3892 29.5952 58.1333 29.7687 57.868C29.9104 57.6539 29.883 57.598 29.6226 57.5749L29.4432 57.558C29.3174 57.5462 29.1916 57.5344 29.0658 57.5267C28.9863 57.5221 28.9069 57.519 28.8275 57.519C28.5727 57.5162 28.3188 57.5076 28.0656 57.4926C27.9753 57.4872 27.8851 57.4808 27.795 57.474C27.2676 57.4335 26.7438 57.3672 26.2233 57.2772C25.948 57.23 25.6709 57.1954 25.3936 57.1609C25.0405 57.1173 24.6869 57.0732 24.3364 57.0027C23.523 56.8442 22.7234 56.6397 21.9468 56.3466C21.732 56.2675 21.5401 56.1416 21.3527 56.0067C21.1928 55.8903 21.1243 55.7367 21.1198 55.5413C21.1151 55.2623 21.2066 55.0156 21.3161 54.7688C21.5767 54.1872 21.9421 53.6755 22.3488 53.187C22.9061 52.5168 23.5687 51.9583 24.2404 51.4048C24.6681 51.0535 25.1181 50.7318 25.5732 50.4187C25.7488 50.2983 25.925 50.1792 26.1011 50.0602L26.164 50.0179L26.1767 50.0097C26.516 49.7807 26.5234 49.7757 26.406 49.3668L26.3576 49.195C26.2041 48.652 26.0506 48.1085 25.9308 47.5614C25.602 46.0722 25.3187 44.574 25.1815 43.0522C25.0719 41.8657 25.0994 40.6792 25.2089 39.4923C25.3323 38.1336 25.5654 36.7935 25.8942 35.4721C26.3603 33.6249 27.1188 31.9122 28.1421 30.3072C28.8871 29.1389 29.7324 28.0597 30.7283 27.1009C31.866 26.0075 33.0629 24.9837 34.4383 24.2067C35.6629 23.5183 36.9374 22.9502 38.2945 22.5876C39.03 22.3918 39.7658 22.2059 40.5241 22.1268C40.6749 22.1128 40.8257 22.1082 40.9765 22.0941C41.0497 22.0896 45.1754 21.8846 46.1987 22.0941V22.085ZM43.5078 23.546C42.5163 23.5273 41.5613 23.5646 40.6109 23.7227C38.5457 24.0672 36.636 24.807 34.8725 25.9285C33.5018 26.7987 32.3229 27.8965 31.2766 29.1344C30.5272 30.0187 29.9012 30.9911 29.3484 32.0149C28.4393 33.6994 27.8316 35.4862 27.4659 37.3616C27.3062 38.1895 27.2194 39.027 27.1599 39.8695C27.0822 40.991 27.0961 42.117 27.2056 43.229C27.2589 43.7629 27.337 44.2932 27.4216 44.8231C27.4537 45.0235 27.4867 45.2234 27.5197 45.4233L27.6076 45.9605C27.6933 46.4921 27.816 47.0179 27.9387 47.5436C27.9884 47.7563 28.0382 47.969 28.0853 48.1825C28.1265 48.3693 28.1658 48.5561 28.2017 48.7433C28.22 48.836 28.2474 48.9292 28.2793 49.0178C28.3525 49.2222 28.3617 49.2318 28.5627 49.1664C28.7545 49.1059 28.9464 49.0596 29.1429 49.0178C29.8484 48.8696 30.5554 48.7483 31.2659 48.6506C31.7382 48.5856 32.2123 48.5315 32.6884 48.487C33.7574 48.3848 34.8267 48.2871 35.8958 48.2407C36.9557 48.1939 38.0203 48.1803 39.0849 48.1753C41.5338 48.1662 43.9874 48.1707 46.4363 48.1753C46.9341 48.1753 47.4318 48.1848 47.9291 48.1985C48.2856 48.208 48.6419 48.2198 48.9979 48.2316H49.0019C49.3517 48.243 49.7013 48.2543 50.0505 48.2639C50.3688 48.273 50.6872 48.2802 51.0058 48.2875C51.8254 48.3066 52.6455 48.3252 53.4681 48.3757C54.2549 48.4238 55.0317 48.5429 55.8076 48.662C56.0816 48.7042 56.3556 48.746 56.6297 48.7851C57.2513 48.8733 57.8635 49.0082 58.4712 49.1573C58.7132 49.2177 58.7909 49.1618 58.8457 48.9387C58.9216 48.6233 58.9997 48.308 59.078 47.9921C59.2212 47.4137 59.3644 46.8343 59.4945 46.2536C59.8097 44.8576 60.0063 43.443 60.0429 42.0098C60.0656 41.2141 60.052 40.4184 60.0382 39.6227C60.0337 39.3846 60.0186 39.1465 59.9956 38.9093C59.9715 38.6594 59.9387 38.4099 59.9012 38.1618C59.5951 36.0865 58.96 34.1179 57.9868 32.2567C57.2558 30.8562 56.3785 29.5624 55.2912 28.4223C54.6103 27.7107 53.8748 27.0591 53.0752 26.487C51.5309 25.37 49.8539 24.528 48.0127 24.0531C46.5233 23.6669 45.011 23.476 43.5031 23.5364L43.5078 23.546ZM43.4895 55.146C44.65 55.1505 45.5089 54.2617 45.5043 53.0425C45.5043 51.8656 44.723 51.0231 43.4529 51.0276C42.2513 51.0276 41.4562 51.9165 41.4288 53.0707C41.4105 54.0477 42.105 55.1878 43.4848 55.146H43.4895ZM57.6669 53.2475C57.7537 52.1537 56.8263 51.1812 55.7664 51.1721C54.4503 51.1626 53.6142 52.1959 53.6142 53.2565C53.6142 54.4339 54.4459 55.2764 55.62 55.2996C56.9314 55.3319 57.7309 54.234 57.6625 53.2429L57.6669 53.2475ZM33.3188 53.0334C33.2733 51.9028 32.6382 51.0885 31.2858 51.0835C30.1161 51.0835 29.4261 51.9165 29.4124 52.968C29.3986 54.1454 30.1801 55.0669 31.4045 55.0483C32.629 55.0297 33.2822 54.2199 33.3188 53.0334Z" fill="white"/>
<defs>
<linearGradient id="paint0_linear_460_15109" x1="44" y1="0" x2="44" y2="88" gradientUnits="userSpaceOnUse">
<stop stop-color="#FF5555"/>
<stop offset="1" stop-color="#9A1111"/>
</linearGradient>
</defs>
</svg>
