<svg width="20" height="20" viewBox="0 0 20 20" fill="none" xmlns="http://www.w3.org/2000/svg">
<g clip-path="url(#clip0_6895_16977)">
<path d="M20 10C20 15.5191 15.5191 20 10 20C4.48087 20 0 15.5191 0 10C0 4.48087 4.48087 0 10 0C15.5191 0 20 4.48087 20 10Z" fill="white"/>
<path d="M6.34019 12.5146L2.96519 10.5646C2.8787 10.5154 2.80678 10.4441 2.75672 10.3581C2.70667 10.2721 2.68026 10.1744 2.68019 10.0749V6.17487C2.67949 6.0758 2.70561 5.97838 2.75579 5.89295C2.80596 5.80752 2.87832 5.73726 2.96519 5.68962L6.34019 3.73962C6.42618 3.69167 6.52299 3.6665 6.62144 3.6665C6.71989 3.6665 6.8167 3.69167 6.90269 3.73962L10.2777 5.68962C10.3638 5.73866 10.4356 5.80954 10.4856 5.89513C10.5356 5.98072 10.5622 6.07798 10.5627 6.17712V7.35462C10.5627 7.5038 10.5034 7.64688 10.3979 7.75237C10.2924 7.85786 10.1494 7.91712 10.0002 7.91712C9.85101 7.91712 9.70793 7.85786 9.60244 7.75237C9.49695 7.64688 9.43769 7.5038 9.43769 7.35462V6.49812L6.62519 4.87062L3.81269 6.49812V9.74562L6.62519 11.3731L9.71519 9.58962C9.77872 9.55268 9.8489 9.52862 9.92172 9.51881C9.99455 9.509 10.0686 9.51363 10.1396 9.53243C10.2107 9.55124 10.2773 9.58385 10.3357 9.6284C10.3942 9.67296 10.4433 9.72859 10.4802 9.79212C10.5171 9.85565 10.5412 9.92583 10.551 9.99865C10.5608 10.0715 10.5562 10.1455 10.5374 10.2166C10.5186 10.2876 10.486 10.3542 10.4414 10.4127C10.3968 10.4711 10.3412 10.5202 10.2777 10.5571L6.90269 12.5071C6.81975 12.5601 6.72359 12.5887 6.62519 12.5896C6.52519 12.5905 6.42678 12.5646 6.34019 12.5146Z" fill="#6B00D6"/>
<path d="M13.0902 16.405L9.71518 14.455C9.62902 14.406 9.55731 14.3351 9.50727 14.2495C9.45723 14.1639 9.43064 14.0667 9.43018 13.9675V12.73C9.43116 12.5812 9.49074 12.4386 9.59601 12.3334C9.70129 12.2281 9.84379 12.1685 9.99268 12.1675C10.1416 12.1685 10.2841 12.2281 10.3893 12.3334C10.4946 12.4386 10.5542 12.5812 10.5552 12.73V13.645L13.3677 15.2725L16.1802 13.645V10.3975L13.3677 8.77003L10.2777 10.5543C10.1503 10.6191 10.003 10.6327 9.86596 10.5924C9.72889 10.552 9.61244 10.4608 9.5405 10.3373C9.46856 10.2139 9.44658 10.0676 9.47906 9.92846C9.51153 9.78932 9.59602 9.66787 9.71518 9.58903L13.0902 7.63903C13.1762 7.59109 13.273 7.56592 13.3714 7.56592C13.4699 7.56592 13.5667 7.59109 13.6527 7.63903L17.0277 9.58903C17.1138 9.63807 17.1855 9.70896 17.2356 9.79455C17.2856 9.88013 17.3122 9.97739 17.3127 10.0765V13.9765C17.3138 14.076 17.2879 14.1739 17.2377 14.2597C17.1875 14.3456 17.1149 14.4162 17.0277 14.464L13.6527 16.414C13.5672 16.4591 13.4718 16.4823 13.3752 16.4815C13.275 16.482 13.1766 16.4556 13.0902 16.405Z" fill="#6B00D6"/>
</g>
<defs>
<clipPath id="clip0_6895_16977">
<rect width="20" height="20" rx="10" fill="white"/>
</clipPath>
</defs>
</svg>
