<svg width="48" height="48" viewBox="0 0 48 48" fill="none" xmlns="http://www.w3.org/2000/svg">
<g clip-path="url(#clip0_610_12944)">
<circle cx="24" cy="24" r="24" fill="#7B3FE3"/>
<path d="M25.0883 27.6052V28.7662C25.0883 29.3772 25.0883 30.0494 25.0883 30.6604C25.0883 30.7826 25.1483 30.9048 25.2684 30.9659C26.8892 31.8825 28.45 32.8602 30.0709 33.7767C30.1909 33.8378 30.251 33.8378 30.371 33.7767C31.9919 32.7991 33.5527 31.8825 35.1735 30.9659C35.2936 30.9048 35.3536 30.8437 35.3536 30.6604C35.3536 28.7662 35.3536 26.8719 35.3536 25.0388C35.3536 24.9166 35.2936 24.7944 35.1735 24.7333C33.5527 23.8167 31.9919 22.839 30.371 21.9224C30.251 21.8613 30.1309 21.8613 30.0108 21.9224C26.1689 24.1833 22.3269 26.4442 18.4849 28.7051C17.7645 29.1328 16.9841 29.3772 16.1437 29.0106C15.5434 28.7662 15.0031 28.3995 14.4628 28.0329C13.0821 27.2385 11.6414 26.3831 10.2607 25.5887C9.42022 25.0999 9 24.3666 9 23.389C9 21.1892 9 18.9894 9 16.7897C9 15.812 9.42022 15.0787 10.2607 14.5899C12.0616 13.5511 13.8625 12.5123 15.6634 11.4125C16.5639 10.8625 17.4644 10.8625 18.3648 11.4125C20.1658 12.4512 21.9067 13.49 23.7076 14.5288C24.6081 15.0787 25.0883 15.8731 25.0283 16.9119C25.0283 17.4007 25.0283 17.8895 25.0283 18.3784C25.0283 18.5006 24.9682 18.5617 24.8482 18.6839C24.0077 19.1727 23.1073 19.6616 22.2668 20.2115C22.0868 20.3337 22.0267 20.2726 22.0267 20.0893C22.0267 19.1727 22.0267 18.2562 22.0267 17.3396C22.0267 17.1563 21.9667 17.0952 21.8466 17.0341C20.2858 16.1175 18.665 15.2009 17.1042 14.2233C16.9841 14.1622 16.8641 14.1622 16.684 14.2233C15.1232 15.1398 13.5624 16.0564 11.9415 17.0341C11.7614 17.1563 11.7014 17.2174 11.7014 17.4007C11.7014 19.2338 11.7014 21.067 11.7014 22.9001C11.7014 23.0834 11.7614 23.1445 11.8815 23.2667C13.4423 24.1833 15.0031 25.0999 16.6239 26.0776C16.804 26.1998 16.9241 26.1998 17.0442 26.0776C20.9462 23.7556 24.8482 21.4947 28.7502 19.1727C29.5906 18.6839 30.4311 18.6839 31.2115 19.1727C33.0724 20.2726 34.8734 21.3114 36.7343 22.4113C37.5747 22.9001 38.055 23.6945 37.995 24.6722C37.995 26.8108 37.995 28.9495 37.995 31.1492C37.995 32.188 37.5747 32.9213 36.6743 33.4101C34.8734 34.4489 33.0724 35.4877 31.2715 36.5875C30.371 37.1375 29.4706 37.1375 28.5701 36.5875C26.7692 35.4877 24.9082 34.4489 23.0472 33.349C22.2668 32.8602 21.8466 32.188 21.8466 31.2714C21.8466 30.7215 21.8466 30.1105 21.8466 29.5605C21.8466 29.4383 21.8466 29.3772 21.9667 29.3161C22.8672 28.7662 23.7676 28.2773 24.6681 27.7274C24.9682 27.6052 25.0283 27.6052 25.0883 27.6052Z" fill="white"/>
</g>
<defs>
<clipPath id="clip0_610_12944">
<rect width="48" height="48" fill="white"/>
</clipPath>
</defs>
</svg>
