<svg width="42" height="42" viewBox="0 0 42 42" fill="none" xmlns="http://www.w3.org/2000/svg">
<g clip-path="url(#clip0_94_68447)">
<g clip-path="url(#clip1_94_68447)">
<path d="M21.004 0.0163574C32.5987 0.0163574 41.9958 9.41347 41.9958 21.0082C41.9958 32.6028 32.5987 42 21.004 42C9.40932 42 0.012207 32.6028 0.012207 21.0082C0.012207 9.41347 9.41342 0.0163574 21.004 0.0163574Z" fill="#07acff"/>
</g>
<path d="M30.9033 22.3711C30.9033 23.2404 30.9033 24.1097 30.9033 24.979C30.769 25.0939 30.6022 25.0866 30.4401 25.0867C26.2615 25.0888 22.0829 25.0897 17.9044 25.0861C17.3437 25.0856 17.2398 24.9821 17.2388 24.4298C17.2347 22.1681 17.2349 19.9065 17.2388 17.6447C17.2397 17.0798 17.3426 16.9815 17.9327 16.9809C21.1103 16.9775 24.2878 16.9797 27.4654 16.9793C28.134 16.9792 28.1345 16.9787 28.1344 16.3348C28.1343 15.9114 28.1308 15.488 28.1351 15.0647C28.1375 14.8262 28.0352 14.7139 27.7827 14.7242C27.655 14.7293 27.5267 14.7234 27.3986 14.7234C22.5101 14.7233 17.6215 14.7236 12.733 14.7232C12.0079 14.7231 11.9996 14.722 12.0103 14.0388C12.0208 13.3614 11.9639 12.6829 12.0418 12.0065C18.2358 12.0065 24.4298 12.0082 30.6239 12C30.8631 11.9997 30.9112 12.0448 30.9102 12.274C30.8991 14.7481 30.9033 17.2223 30.9033 19.6964C30.7234 19.8398 30.5062 19.8027 30.3006 19.8029C27.1719 19.8053 24.0432 19.8044 20.9145 19.8046C20.1886 19.8047 20.1882 19.8052 20.1884 20.4994C20.1885 20.9558 20.1821 21.4124 20.191 21.8687C20.1975 22.2072 20.2429 22.2467 20.6005 22.2602C20.8213 22.2686 21.0424 22.2629 21.2634 22.2629C24.2758 22.2631 27.2882 22.2622 30.3006 22.2647C30.5062 22.2647 30.7234 22.2276 30.9033 22.3711Z" fill="white"/>
<path d="M30.9024 29.9944C24.7435 29.9944 18.5847 29.9925 12.4258 30.0002C12.1402 30.0005 12.037 29.9635 12.0381 29.6496C12.052 25.5708 12.0501 21.4919 12.0408 17.4131C12.0403 17.1519 12.1073 17.0799 12.3805 17.0883C13.0434 17.1085 13.7078 17.1072 14.3709 17.0894C14.6737 17.0813 14.7666 17.1701 14.7657 17.4674C14.7549 20.7216 14.761 23.9758 14.754 27.2299C14.7535 27.4469 14.7835 27.5331 15.0456 27.5327C20.2964 27.5243 25.5472 27.5263 30.798 27.5261C30.8329 27.5261 30.8677 27.5223 30.9025 27.5203C30.9024 28.3449 30.9024 29.1697 30.9024 29.9944Z" fill="white"/>
</g>
<defs>
<clipPath id="clip0_94_68447">
<rect width="42" height="42" fill="white"/>
</clipPath>
<clipPath id="clip1_94_68447">
<rect width="42" height="42" fill="white"/>
</clipPath>
</defs>
</svg>
