<svg width="100" height="100" viewBox="0 0 100 100" fill="none" xmlns="http://www.w3.org/2000/svg">
<mask id="mask0_1112_931" style="mask-type:alpha" maskUnits="userSpaceOnUse" x="0" y="0" width="100" height="100">
<circle cx="50" cy="50" r="50" fill="#D9D9D9"/>
</mask>
<g mask="url(#mask0_1112_931)">
<mask id="mask1_1112_931" style="mask-type:luminance" maskUnits="userSpaceOnUse" x="0" y="0" width="100" height="100">
<path d="M92 0H8C3.58172 0 0 3.58172 0 8V92C0 96.4183 3.58172 100 8 100H92C96.4183 100 100 96.4183 100 92V8C100 3.58172 96.4183 0 92 0Z" fill="white"/>
</mask>
<g mask="url(#mask1_1112_931)">
<path d="M91.9998 0.000488281H7.99976C3.58148 0.000488281 -0.000244141 3.58221 -0.000244141 8.00049V92.0005C-0.000244141 96.4188 3.58148 100 7.99976 100H91.9998C96.418 100 99.9998 96.4188 99.9998 92.0005V8.00049C99.9998 3.58221 96.418 0.000488281 91.9998 0.000488281Z" fill="#54FFF5"/>
<g filter="url(#filter0_f_1112_931)">
<path d="M5.26567 77.5817C-11.4562 124.628 77.9925 111.34 124.807 98.8157C172.72 82.915 139.604 12.8243 105.24 11.2731C70.8758 9.72188 109.5 43.6827 80.3105 53.3824C51.1202 63.0821 26.1681 18.7741 5.26567 77.5817Z" fill="white"/>
</g>
<g filter="url(#filter1_f_1112_931)">
<path d="M33.403 -17.8979C24.6313 -41.8642 -6.60902 -9.37166 -21.1327 9.87041C-34.9864 30.8015 1.17546 48.8889 15.3596 39.0786C29.5438 29.2682 3.03684 27.3595 11.4729 14.6025C19.9089 1.84557 44.3677 12.0599 33.403 -17.8979Z" fill="#00FFF0" fill-opacity="0.67"/>
</g>
<g filter="url(#filter2_f_1112_931)">
<path d="M37.6874 88.057C25.7228 47.799 -25.8132 68.9996 -50.0856 84.6323C-73.4333 103.142 -17.9965 156.387 5.02836 153.663C28.0532 150.94 -13.4421 127.761 0.776216 116.474C14.9945 105.187 52.6431 138.38 37.6874 88.057Z" fill="#9D81FF"/>
</g>
<g filter="url(#filter3_f_1112_931)">
<path d="M110.203 -41.9337C84.3932 -72.6674 47.4462 -47.2528 32.1989 -30.7039C18.8568 -11.9695 87.6072 22.3571 106.688 16.4743C125.769 10.5915 80.6686 -1.58105 88.7879 -13.002C96.9072 -24.4229 142.465 -3.5167 110.203 -41.9337Z" fill="#4D94FF"/>
</g>
<path fill-rule="evenodd" clip-rule="evenodd" d="M39.7903 57.338H52.5439L38.0364 42.6288L52.7304 27.9196L56.7326 24H43.4947L26.6354 41.0707C25.7846 41.931 25.7889 43.3233 26.6441 44.1793L39.7903 57.338ZM47.4572 42.6631H47.3591L47.4561 42.662L47.4572 42.6631ZM47.4572 42.6631L61.9637 57.3712L47.2696 72.0805L43.2675 76H56.5053L73.3645 58.9305C74.2155 58.0701 74.211 56.6778 73.356 55.8218L60.2097 42.6631H47.4572Z" fill="black"/>
</g>
</g>
<defs>
<filter id="filter0_f_1112_931" x="-54.4815" y="-46.4707" width="260.945" height="214.802" filterUnits="userSpaceOnUse" color-interpolation-filters="sRGB">
<feFlood flood-opacity="0" result="BackgroundImageFix"/>
<feBlend mode="normal" in="SourceGraphic" in2="BackgroundImageFix" result="shape"/>
<feGaussianBlur stdDeviation="28.8462" result="effect1_foregroundBlur_1112_931"/>
</filter>
<filter id="filter1_f_1112_931" x="-81.9304" y="-84.0684" width="175.804" height="183.582" filterUnits="userSpaceOnUse" color-interpolation-filters="sRGB">
<feFlood flood-opacity="0" result="BackgroundImageFix"/>
<feBlend mode="normal" in="SourceGraphic" in2="BackgroundImageFix" result="shape"/>
<feGaussianBlur stdDeviation="28.8462" result="effect1_foregroundBlur_1112_931"/>
</filter>
<filter id="filter2_f_1112_931" x="-113.402" y="7.19285" width="212.232" height="204.263" filterUnits="userSpaceOnUse" color-interpolation-filters="sRGB">
<feFlood flood-opacity="0" result="BackgroundImageFix"/>
<feBlend mode="normal" in="SourceGraphic" in2="BackgroundImageFix" result="shape"/>
<feGaussianBlur stdDeviation="28.8462" result="effect1_foregroundBlur_1112_931"/>
</filter>
<filter id="filter3_f_1112_931" x="-27.1985" y="-114.058" width="206.505" height="188.894" filterUnits="userSpaceOnUse" color-interpolation-filters="sRGB">
<feFlood flood-opacity="0" result="BackgroundImageFix"/>
<feBlend mode="normal" in="SourceGraphic" in2="BackgroundImageFix" result="shape"/>
<feGaussianBlur stdDeviation="28.8462" result="effect1_foregroundBlur_1112_931"/>
</filter>
</defs>
</svg>
