<svg width="100" height="100" viewBox="0 0 100 100" fill="none" xmlns="http://www.w3.org/2000/svg">
<path d="M50 0C77.6172 0 100 22.3828 100 50C100 77.6172 77.6172 100 50 100C22.3828 100 0 77.6172 0 50C0 22.3828 22.3926 0 50 0Z" fill="black"/>
<path fill-rule="evenodd" clip-rule="evenodd" d="M44.4755 53.7412C44.5963 53.7798 44.722 53.8088 44.8477 53.8233C44.8477 53.8233 44.3208 54.0215 43.2333 53.6493C43.2333 53.6493 42.4165 53.3158 41.8075 53.3738C41.097 53.4367 40.6088 54.3598 40.6088 54.3598C40.749 54.2825 40.8988 54.2245 41.0535 54.1858C41.5368 54.0892 41.3725 54.1713 41.3725 54.1713C41.3725 54.1713 40.4445 54.5628 40.3817 54.906C40.3672 54.993 40.6282 54.7465 41.3145 54.7707C42.1603 54.7948 42.895 55.2878 43.1947 55.37C43.8133 55.5343 44.6978 55.573 45.5147 54.935C45.5147 54.935 46.2638 54.4662 46.4958 53.5962C46.5538 53.3545 46.5925 53.108 46.6022 52.8615C46.607 52.644 46.5828 52.4265 46.5345 52.209C46.5297 52.2042 46.0898 53.224 44.4755 53.7412Z" fill="white"/>
<path fill-rule="evenodd" clip-rule="evenodd" d="M60.4447 63.2873C62.0832 61.2331 62.9726 58.686 62.9726 56.0566C62.9726 53.4321 62.0784 50.8801 60.4447 48.826L70.9379 47.6708C70.9379 47.6708 72.0302 50.6626 72.3154 52.2625C72.3541 52.4655 72.4169 52.8811 72.4169 52.8811C72.4169 52.8811 70.7881 56.8348 68.2893 59.005C64.9349 61.9243 60.4447 63.2873 60.4447 63.2873ZM35.5966 63.1423L31.5753 63.8866C30.2993 60.6531 29.8304 57.1586 30.2171 53.7076C30.5989 50.2518 31.8266 46.9458 33.7793 44.0748C33.8663 43.9491 34.0403 43.7026 34.0403 43.7026L38.4821 56.2161L35.5966 63.1423Z" fill="url(#paint0_linear_1112_962)"/>
<path fill-rule="evenodd" clip-rule="evenodd" d="M50.1498 37.4771C50.1643 37.4578 50.1739 37.453 50.1884 37.4336C50.2948 37.3176 52.7936 34.6351 49.8163 30.087C47.6171 26.7375 42.0249 26.8293 39.7388 25.0845C39.9079 26.4281 41.2226 27.6413 41.0824 29.478C41.0244 30.087 40.9133 30.6863 40.7441 31.2711C40.4734 32.32 40.2221 33.3205 40.5991 35.278C40.8939 36.8053 41.5899 37.917 42.6678 38.5888C43.9051 39.3525 45.6161 39.5216 47.3706 39.048C48.5403 38.729 49.5843 38.1393 50.1498 37.4771Z" fill="url(#paint1_linear_1112_962)"/>
<path fill-rule="evenodd" clip-rule="evenodd" d="M53.8764 35.5147C54.5192 34.4079 54.64 33.1174 54.2437 31.6867C53.6927 29.6857 52.6487 28.3711 51.8029 27.3174C51.537 26.9839 51.2905 26.6746 51.0875 26.3797C50.2852 25.2004 49.9372 23.7697 50.1112 22.3584C49.0914 23.0931 47.129 24.4754 45.8772 25.9496C47.6897 26.8196 49.1059 27.7669 50.2224 29.4731C52.1315 32.3827 52.0977 34.7317 51.7352 36.1914C51.6337 36.5926 52.4022 36.9502 52.262 37.2596C52.9145 36.7956 53.4607 36.2011 53.8764 35.5147Z" fill="url(#paint2_linear_1112_962)"/>
<path fill-rule="evenodd" clip-rule="evenodd" d="M67.7722 47.5981C65.6407 47.3951 61.3245 46.8683 61.3245 46.8683C51.6144 46.3269 46.1044 49.2414 41.9477 53.0549C38.7384 56.2449 35.877 64.5099 35.877 64.5099L32.4019 64.3214C32.4019 64.3214 33.5087 61.0251 34.7895 58.6229C36.2589 55.8728 36.5875 56.0951 36.254 55.6408C34.7025 53.5093 33.9727 51.8321 33.3492 48.2458C33.3492 48.2458 34.079 48.8209 34.63 48.4681C34.63 48.4681 33.3782 46.2931 33.1849 43.9441C32.8417 39.7826 34.7895 34.0986 34.8379 33.9681C34.8185 34.0261 34.717 34.5143 35.8577 35.2441C35.9399 34.9009 36.0269 34.5626 36.1187 34.2339C36.5199 32.2716 37.5977 27.9844 39.7485 25.0796C39.7485 25.0796 40.952 29.2798 43.9729 31.1841C49.855 34.8961 53.538 34.9154 53.538 34.9154C61.8465 35.8434 65.3942 39.9228 65.3942 39.9228C71.3585 46.3559 76.7767 46.2979 76.7767 46.2979C74.8289 48.1588 67.7722 47.5981 67.7722 47.5981Z" fill="url(#paint3_linear_1112_962)"/>
<path fill-rule="evenodd" clip-rule="evenodd" d="M76.8783 46.298C76.8783 46.298 76.0324 50.9766 71.6003 51.5228C71.6003 51.5228 55.5246 51.4213 54.3501 66.0228L54.0794 70.1263L34.7944 64.5051C34.7944 64.5051 36.6118 58.304 40.5896 53.3256C40.5896 53.3256 47.3418 43.7895 66.5784 46.3028C66.5784 46.3028 68.8259 46.7571 71.9773 47.052C74.6356 47.2985 76.8783 46.298 76.8783 46.298Z" fill="url(#paint4_linear_1112_962)"/>
<path fill-rule="evenodd" clip-rule="evenodd" d="M65.9404 44.0697C65.9404 44.0697 61.7644 41.8995 56.5686 42.1025C56.5686 42.1025 59.3961 39.8937 63.2144 40.435L65.9404 44.0697Z" fill="#722B00"/>
<path fill-rule="evenodd" clip-rule="evenodd" d="M55.3795 64.0218C55.3795 64.0218 56.7377 64.9595 58.8933 64.4616C58.8933 64.4616 55.4085 66.482 48.0618 63.7125C48.0618 63.7125 40.488 60.3243 35.1568 61.0976C31.73 61.5955 28.7043 64.3166 26.8677 66.3853C24.654 68.889 24.9295 67.7193 30.4927 67.0281C31.8315 66.8638 31.0582 67.2408 31.0582 67.2408C31.0582 67.2408 23.6293 70.3583 23.1267 73.1278C23.001 73.819 25.0842 71.8663 30.5797 72.0403C37.327 72.253 43.1947 76.168 45.6065 76.8156C50.5462 78.1351 57.6318 78.4396 64.1327 73.3405C64.1327 73.3405 70.1308 69.5753 71.9868 62.6201C72.4702 60.6916 72.7553 58.7148 72.8375 56.7283C72.9342 54.1376 72.1463 51.4116 72.1463 51.4116C72.1463 51.4116 67.7673 61.1315 55.3795 64.0218Z" fill="url(#paint5_linear_1112_962)"/>
<defs>
<linearGradient id="paint0_linear_1112_962" x1="50.7836" y1="43.0277" x2="51.6229" y2="63.8529" gradientUnits="userSpaceOnUse">
<stop stop-color="#DADB48"/>
<stop offset="0.6562" stop-color="#637621"/>
</linearGradient>
<linearGradient id="paint1_linear_1112_962" x1="51.2686" y1="32.2022" x2="41.0657" y2="32.2022" gradientUnits="userSpaceOnUse">
<stop stop-color="#EC6F01"/>
<stop offset="1" stop-color="#F4B23D"/>
</linearGradient>
<linearGradient id="paint2_linear_1112_962" x1="50.4409" y1="33.9174" x2="49.8378" y2="24.0663" gradientUnits="userSpaceOnUse">
<stop stop-color="#F4B33E"/>
<stop offset="1" stop-color="#FB6F1B"/>
</linearGradient>
<linearGradient id="paint3_linear_1112_962" x1="32.1681" y1="43.1587" x2="68.0539" y2="57.3322" gradientUnits="userSpaceOnUse">
<stop stop-color="#FB6D1A"/>
<stop offset="1" stop-color="#F3B23E"/>
</linearGradient>
<linearGradient id="paint4_linear_1112_962" x1="40.2094" y1="63.8804" x2="74.2859" y2="48.9028" gradientUnits="userSpaceOnUse">
<stop stop-color="#F3B63F"/>
<stop offset="1" stop-color="#FB701C"/>
</linearGradient>
<linearGradient id="paint5_linear_1112_962" x1="36.6958" y1="74.9048" x2="66.1986" y2="56.5095" gradientUnits="userSpaceOnUse">
<stop stop-color="#EC6F00"/>
<stop offset="1" stop-color="#F4B33E"/>
</linearGradient>
</defs>
</svg>
