<svg width="100" height="100" viewBox="0 0 100 100" fill="none" xmlns="http://www.w3.org/2000/svg">
<circle cx="50" cy="50" r="50" fill="#FFE5CE"/>
<path d="M74.6777 25.606L53.2783 41.2169L57.2683 32.0141L74.6777 25.606Z" fill="#E17726" stroke="#E17726" stroke-width="0.25" stroke-linecap="round" stroke-linejoin="round"/>
<path d="M25.3321 25.606L46.5361 41.3454L42.7415 32.0302L25.3321 25.606ZM66.9746 61.7905L61.2746 70.3669L73.4726 73.6754L76.9578 61.9832L66.9746 61.7905ZM23.0684 61.9832L26.5372 73.6754L38.7026 70.3669L33.0352 61.7905L23.0684 61.9832Z" fill="#E27625" stroke="#E27625" stroke-width="0.25" stroke-linecap="round" stroke-linejoin="round"/>
<path d="M38.0512 47.3039L34.6638 52.347L46.7152 52.893L46.3244 40.0927L38.0512 47.32V47.3039ZM61.9587 47.32L53.5552 39.9321L53.2784 52.893L65.3298 52.347L61.9587 47.32ZM38.7027 70.367L46.015 66.8979L39.7287 62.0797L38.7027 70.367ZM54.0112 66.8818L61.2747 70.367L60.2975 62.0636L54.0112 66.8818Z" fill="#E27625" stroke="#E27625" stroke-width="0.25" stroke-linecap="round" stroke-linejoin="round"/>
<path d="M61.2746 70.367L54.0112 66.8979L54.5975 71.5555L54.5324 73.531L61.2746 70.367ZM38.7026 70.367L45.4775 73.531L45.4286 71.5555L46.0149 66.8979L38.7026 70.367Z" fill="#D5BFB2" stroke="#D5BFB2" stroke-width="0.25" stroke-linecap="round" stroke-linejoin="round"/>
<path d="M45.5914 58.9801L39.5657 57.2456L43.8325 55.3183L45.6077 58.9801H45.5914ZM54.402 58.9801L56.1934 55.3022L60.4765 57.2295L54.402 58.9962V58.9801Z" fill="#233447" stroke="#233447" stroke-width="0.25" stroke-linecap="round" stroke-linejoin="round"/>
<path d="M38.7026 70.3672L39.7612 61.7908L33.0352 61.9835L38.7026 70.3672ZM60.2486 61.7908L61.2746 70.3672L66.9746 61.9835L60.2486 61.7908ZM65.346 52.3472L53.2946 52.8932L54.402 58.9963L56.1934 55.3023L60.4766 57.2296L65.346 52.3472ZM39.5657 57.2457L43.8326 55.3184L45.6077 58.9802L46.7314 52.8772L34.68 52.3472L39.5657 57.2457Z" fill="#CC6228" stroke="#CC6228" stroke-width="0.25" stroke-linecap="round" stroke-linejoin="round"/>
<path d="M34.6799 52.3472L39.7285 62.0638L39.5656 57.2457L34.6799 52.3472ZM60.4765 57.2457L60.2811 62.0638L65.3296 52.3472L60.4765 57.2457ZM46.7314 52.8932L45.5914 58.9963L47.0245 66.1914L47.3502 56.6996L46.7314 52.8932ZM53.2782 52.8932L52.6919 56.6835L52.9851 66.1914L54.4019 58.9802L53.2782 52.8772V52.8932Z" fill="#E27525" stroke="#E27525" stroke-width="0.25" stroke-linecap="round" stroke-linejoin="round"/>
<path d="M54.4019 58.9802L52.985 66.1914L54.011 66.898L60.281 62.0798L60.4765 57.2456L54.4019 58.9802ZM39.5656 57.2456L39.7285 62.0638L46.0147 66.882L47.0245 66.1914L45.6076 58.9802L39.5493 57.2456H39.5656Z" fill="#F5841F" stroke="#F5841F" stroke-width="0.25" stroke-linecap="round" stroke-linejoin="round"/>
<path d="M54.5486 73.5311L54.5975 71.5557L54.0438 71.106H45.9661L45.4286 71.5557L45.4775 73.5311L38.7026 70.3672L41.0804 72.2945L45.8846 75.5548H54.1089L58.9295 72.2784L61.2746 70.3672L54.5324 73.5311H54.5486Z" fill="#C0AC9D" stroke="#C0AC9D" stroke-width="0.25" stroke-linecap="round" stroke-linejoin="round"/>
<path d="M54.011 66.882L52.985 66.1914H47.0245L46.0148 66.8981L45.4285 71.5556L45.9659 71.106H54.0436L54.5973 71.5556L54.011 66.8981V66.882Z" fill="#161616" stroke="#161616" stroke-width="0.25" stroke-linecap="round" stroke-linejoin="round"/>
<path d="M75.5898 42.2287L77.3812 33.6363L74.6778 25.606L53.9949 40.7029L61.9587 47.3038L73.1958 50.532L75.6712 47.6893L74.5964 46.9184L76.3064 45.3766L75.0035 44.3808L76.7135 43.096L75.5735 42.2287H75.5898ZM22.6287 33.6202L24.4527 42.2287L23.2801 43.0799L25.0227 44.3647L23.7198 45.3766L25.4135 46.9184L24.3387 47.6893L26.8141 50.532L38.0512 47.3199L46.0149 40.6869L25.3321 25.606L22.6287 33.6202Z" fill="#763E1A" stroke="#763E1A" stroke-width="0.25" stroke-linecap="round" stroke-linejoin="round"/>
<path d="M73.1958 50.532L61.9586 47.3199L65.3461 52.3469L60.2975 62.0636L66.9746 61.9833H76.9578L73.1958 50.532ZM38.0512 47.3039L26.8141 50.532L23.0684 61.9833H33.0515L39.7286 62.0636L34.6801 52.3469L38.0675 47.3039H38.0512ZM53.2784 52.8929L54.0112 40.6869L57.2684 32.0142H42.7415L45.9986 40.6869L46.7315 52.8929L47.0084 56.7154V66.1911H52.9852L53.0178 56.7154L53.2784 52.8929Z" fill="#F5841F" stroke="#F5841F" stroke-width="0.25" stroke-linecap="round" stroke-linejoin="round"/>
</svg>
