<svg width="100" height="100" viewBox="0 0 100 100" fill="none" xmlns="http://www.w3.org/2000/svg">
<rect width="100" height="100" rx="50" fill="black"/>
<path d="M57.8263 70.9931C57.9161 70.9518 58.006 70.9105 58.1684 70.8347C57.3598 70.6832 57.2873 70.1149 57.2873 69.495C57.2873 65.81 57.2873 62.125 57.2873 58.4401C57.2873 57.5653 57.6259 57.2037 58.5174 57.2002C62.5877 57.1899 66.6615 57.1968 70.7319 57.2002C71.1569 57.2002 71.5197 57.3449 71.765 57.7168C71.8203 57.8029 71.886 57.8753 71.9896 57.9062C71.9896 62.1698 71.9896 66.4299 71.9965 70.69C71.9965 70.9483 71.9447 71 71.6856 71C67.0658 70.9897 62.4426 70.9931 57.8228 70.9931H57.8263Z" fill="white"/>
<path d="M28.5425 70.9928C28.615 70.948 28.6842 70.9067 28.8086 70.8344C28.0933 70.6312 28.0035 70.1077 28.0035 69.5085C28.0104 65.8511 28.0069 62.1971 28.0069 58.5396C28.0069 57.5891 28.3697 57.2034 29.3372 57.2C33.3661 57.1931 37.3916 57.1931 41.4205 57.2C42.2601 57.2 42.654 57.6201 42.654 58.4432C42.654 62.142 42.654 65.8407 42.654 69.5395C42.654 70.4074 42.5365 70.5796 41.7556 70.8723C41.8178 70.9136 41.8731 70.9515 41.9318 70.9894C37.4676 70.9894 33.0068 70.9894 28.5425 70.9894V70.9928Z" fill="white"/>
<path d="M71.9931 42.925C71.5992 43.6241 70.9496 43.6482 70.2481 43.6448C66.3333 43.631 62.4184 43.6413 58.5035 43.6413C57.5913 43.6413 57.2838 43.3348 57.2838 42.4256C57.2838 38.7234 57.2873 35.0247 57.2907 31.3225C57.2907 30.892 57.3356 30.489 57.7537 30.2342C57.8332 30.186 57.8608 30.1033 57.8263 30.0069C62.4391 30.0069 67.0554 30.0069 71.6683 30C71.9343 30 72 30.0585 72 30.3272C71.9896 34.5253 71.9931 38.7234 71.9931 42.9216V42.925Z" fill="white"/>
<path d="M42.0182 30.0102C42.6194 30.4338 42.6713 31.033 42.6644 31.7115C42.6402 35.2828 42.654 38.8541 42.654 42.4255C42.654 43.2658 42.3015 43.6308 41.4481 43.6308C37.3328 43.6377 33.2141 43.6377 29.0988 43.6377C28.3663 43.6377 28.0034 43.2796 28.0034 42.5529C28.0034 38.7646 28.0173 34.9797 28 31.1914C28 30.6439 28.2868 30.3305 28.6323 30.0067H42.0217L42.0182 30.0102Z" fill="white"/>
<path d="M49.9966 43.6C51.9108 43.6 53.8251 43.6 55.7358 43.6C55.995 43.6 56.2507 43.6035 56.5064 43.6655C56.9314 43.7654 57.1975 44.0133 57.2597 44.4438C57.2977 44.7124 57.3149 44.9845 57.3149 45.2566C57.3149 48.7831 57.3149 52.3131 57.3149 55.8397C57.3149 56.9555 56.9521 57.3103 55.8361 57.2861C52.3116 57.2069 48.7872 57.2689 45.2628 57.2552C44.7894 57.2552 44.316 57.3171 43.8427 57.3137C42.9996 57.3068 42.5987 56.9073 42.5953 56.067C42.5884 52.3682 42.5884 48.6695 42.5953 44.9673C42.5953 43.9961 42.9305 43.6414 43.9118 43.6104C44.7445 43.5828 45.5807 43.6035 46.4134 43.6035C47.609 43.6035 48.801 43.6035 49.9966 43.6035V43.6Z" fill="white"/>
</svg>
