<svg width="100" height="100" viewBox="0 0 100 100" fill="none" xmlns="http://www.w3.org/2000/svg">
<rect width="100" height="100" rx="50" fill="black"/>
<path d="M30 25L37.4099 32.5923C40.411 30.1314 44.0215 28.5764 47.8364 28.1018C51.6514 27.6273 55.5198 28.2519 59.0078 29.9055C62.4958 31.5592 65.4656 34.1766 67.5837 37.4641C69.702 40.7516 70.8849 44.5793 71 48.5176V49.1372V74L63.6001 66.4077C60.6016 68.8715 56.9929 70.4296 53.1788 70.9073C49.3647 71.3848 45.4962 70.7631 42.0076 69.1118C38.519 67.4604 35.5483 64.8448 33.429 61.5587C31.3097 58.2723 30.1257 54.4456 30.0098 50.5076V49.8879L30 25ZM35.066 37.5397V49.8628C35.0672 52.7632 35.837 55.609 37.2932 58.0956C38.7494 60.5823 40.8373 62.6165 43.3337 63.981C45.8301 65.3453 48.6411 65.9884 51.4663 65.8418C54.2917 65.6951 57.025 64.764 59.3742 63.1481L59.7772 62.8659L36.0537 38.5523L35.066 37.5397ZM41.6357 35.8519L41.2328 36.1391L64.9513 60.4477L65.9339 61.4553V49.1372C65.9334 46.2377 65.1643 43.3928 63.7089 40.9066C62.2536 38.4205 60.1667 36.3865 57.6713 35.0222C55.1759 33.6578 52.3659 33.0143 49.5414 33.1605C46.7171 33.3066 43.9844 34.2369 41.6357 35.8519Z" fill="white"/>
</svg>
