<svg width="100" height="100" viewBox="0 0 100 100" fill="none" xmlns="http://www.w3.org/2000/svg">
<rect width="100" height="100" rx="50" fill="#2980FE"/>
<path d="M40.3484 44.7749H40.3585C40.3484 44.7145 40.3484 44.644 40.3484 44.5835V44.7749Z" fill="#29AEFF"/>
<path d="M60.4087 46.689H49.3059V66.7284C49.3059 67.6755 50.0716 68.4412 51.0186 68.4412H58.6959C59.643 68.4412 60.4087 67.6755 60.4087 66.7284V46.689Z" fill="white"/>
<path d="M43.9458 32.3428H43.573H23.6947C22.7476 32.3428 21.9819 33.1085 21.9819 34.0556V41.0074C21.9819 41.9545 22.7476 42.7202 23.6947 42.7202H28.3595H30.2134V44.7755V66.7796C30.2134 67.7267 30.979 68.4924 31.9261 68.4924H39.2206C40.1676 68.4924 40.9333 67.7267 40.9333 66.7796V44.7755V44.5841V42.7202H42.7871H43.5427H43.9155C46.7769 42.7202 49.1042 40.3928 49.1042 37.5315C49.1345 34.6701 46.8071 32.3428 43.9458 32.3428Z" fill="white"/>
<path d="M60.4187 46.689V60.6733C60.8016 60.7639 61.1945 60.8345 61.5975 60.8949C62.1617 60.9755 62.746 61.0259 63.3304 61.036C63.3607 61.036 63.3909 61.036 63.4312 61.036V49.913C61.7486 49.8021 60.4187 48.4017 60.4187 46.689Z" fill="url(#paint0_linear_1112_915)"/>
<path d="M63.6529 32.3428C55.7339 32.3428 49.3059 38.7707 49.3059 46.6898C49.3059 53.5006 54.0513 59.2031 60.4188 60.6741V46.6898C60.4188 44.9065 61.8696 43.4556 63.6529 43.4556C65.4362 43.4556 66.887 44.9065 66.887 46.6898C66.887 48.191 65.8694 49.4504 64.4791 49.8131C64.2171 49.8836 63.935 49.9239 63.6529 49.9239V61.0368C63.935 61.0368 64.207 61.0268 64.4791 61.0167C72.0153 60.5834 77.9999 54.3368 77.9999 46.6898C78.01 38.7707 71.582 32.3428 63.6529 32.3428Z" fill="white"/>
<path d="M63.6528 61.0376V49.9246C63.5723 49.9246 63.5017 49.9246 63.4211 49.9146V61.0376C63.5017 61.0376 63.5824 61.0376 63.6528 61.0376Z" fill="white"/>
<defs>
<linearGradient id="paint0_linear_1112_915" x1="63.6575" y1="53.8646" x2="60.4201" y2="53.8646" gradientUnits="userSpaceOnUse">
<stop stop-color="white"/>
<stop offset="0.9667" stop-color="white" stop-opacity="0.3233"/>
<stop offset="1" stop-color="white" stop-opacity="0.3"/>
</linearGradient>
</defs>
</svg>
