<svg width="78" height="77" viewBox="0 0 78 77" fill="none" xmlns="http://www.w3.org/2000/svg">
<g filter="url(#filter0_d_1_4642)">
<rect x="6" y="2" width="66" height="66" rx="8" fill="url(#paint0_linear_1_4642)"/>
</g>
<path d="M37.2158 18.1965L30.0555 20.9768C29.9599 21.0197 29.8659 21.0658 29.7735 21.115C29.4779 21.2662 29.2368 21.4362 29.0459 21.6363C28.6252 22.0672 28.4751 22.6032 28.4956 23.3644V31.8117L21.0283 34.6114C20.5917 34.7444 20.196 34.9746 19.8891 35.2782C19.4639 35.6789 19.2115 36.2087 19.2342 36.8807V42.1207L19.2319 45.6361C19.2319 46.9811 19.4912 47.2744 20.6849 47.9156L28.2614 51.9108C29.371 52.3257 29.8508 52.5235 31.0604 51.9108L31.4379 51.7163L38.2845 48.1828V48.1817L38.2867 48.1806L38.289 48.1794L38.2913 48.1771L38.2936 48.176L38.2958 48.1737L38.3004 48.1715L38.3027 48.1691L38.3072 48.1669L38.3118 48.1635L38.3163 48.1611L38.3208 48.1577L38.3277 48.1543L38.3322 48.1509L38.339 48.1475L38.3459 48.143L38.3527 48.1396L38.3595 48.135L38.3663 48.1316L38.3754 48.1271L38.3822 48.1225L38.3913 48.118L38.4005 48.1135L38.4096 48.1089L38.4187 48.1044L38.4278 48.0987L38.4391 48.0941L38.4483 48.0896L38.4597 48.0839L38.471 48.0794L38.4824 48.0737L38.4938 48.0691L38.5074 48.0646L38.5188 48.0589L38.5324 48.0532L38.5438 48.0487L38.5574 48.0441L38.5711 48.0384L38.5847 48.0339L38.6006 48.0294L38.6143 48.0248L38.6279 48.0203L38.6438 48.0157L38.6597 48.01L38.6756 48.0066L38.6915 48.0021L38.7074 47.9975L38.7234 47.993L38.7415 47.9896L38.7575 47.9851L38.7756 47.9817L38.7938 47.9782L38.812 47.9748L38.8302 47.9714L38.8484 47.9691L38.8666 47.9657L38.8848 47.9634L38.9052 47.9611L38.9234 47.9588H38.9257L38.9439 47.9566L38.9644 47.9554L38.9848 47.9532L39.0053 47.9554L39.0258 47.9566L39.044 47.9588L39.0644 47.9611L39.0826 47.9634L39.1031 47.9657L39.1213 47.9691L39.1395 47.9714L39.1577 47.9748L39.1758 47.9782L39.194 47.9817L39.2099 47.9851H39.2122L39.2281 47.9896L39.244 47.993L39.2622 47.9975L39.2781 48.0021L39.294 48.0066L39.3077 48.01L39.3236 48.0157L39.3395 48.0203L39.3554 48.0248L39.369 48.0294L39.3827 48.0339L39.3986 48.0384L39.4099 48.0441L39.4236 48.0487L39.4372 48.0532L39.4509 48.0589L39.4623 48.0646L39.4736 48.0691L39.4873 48.0737L39.4986 48.0794L39.51 48.0839L39.5191 48.0896L39.5305 48.0941L39.5396 48.0987L39.5509 48.1044L39.5601 48.1089L39.5691 48.1135L39.5783 48.118L39.5874 48.1225L39.5942 48.1271L39.6033 48.1316L39.6102 48.135L39.617 48.1396L39.6238 48.143L39.6306 48.1475L39.6375 48.1509L39.642 48.1543L39.6488 48.1577L39.6534 48.1611L39.6579 48.1635L39.6624 48.1669L39.667 48.1691L39.6693 48.1715L39.6716 48.1737L39.6761 48.176L39.6783 48.1771L39.6807 48.1794V48.1806H39.6829L39.6852 48.1817V48.1828L46.5318 51.7163L46.9092 51.9108C48.1166 52.5235 48.5987 52.3257 49.7083 51.9108L57.1483 47.9884C58.1601 47.4506 58.6809 47.1982 58.7309 45.9704C58.8128 44.7811 58.7355 43.3383 58.7355 42.1207V36.8807C58.7582 36.2087 58.5058 35.6789 58.0784 35.2782C57.7714 34.9746 57.378 34.7444 56.9391 34.6114L49.4741 31.8117L49.4718 23.3643C49.4946 22.6032 49.3445 22.0671 48.9238 21.6362C48.7328 21.4361 48.4895 21.2662 48.1962 21.1149C48.0211 21.0223 47.8642 20.9563 47.6823 20.8858L40.7539 18.1965C40.2333 17.9935 39.551 17.6974 38.9849 17.7002C38.4186 17.6973 37.7365 17.9935 37.2158 18.1965ZM29.6529 33.8525L37.5364 37.0865L29.6529 40.3199L21.7718 37.0865L29.6529 33.8525ZM48.3371 33.8525L56.2183 37.0865L48.3371 40.3199L40.4537 37.0865L48.3371 33.8525ZM40.3423 28.9273L46.8137 26.1748V31.8134L40.3423 34.455V28.9273ZM31.0514 42.7597L37.5227 39.7866V45.7555L31.0514 49.0582V42.7597ZM49.6355 42.7597L56.1069 39.7866V45.7555L49.6355 49.0582V42.7597ZM38.9166 20.0161L46.7977 23.2501L38.9166 26.4829L31.0355 23.2501L38.9166 20.0161Z" fill="white"/>
<defs>
<filter id="filter0_d_1_4642" x="0.5" y="-2.38419e-07" width="77" height="77" filterUnits="userSpaceOnUse" color-interpolation-filters="sRGB">
<feFlood flood-opacity="0" result="BackgroundImageFix"/>
<feColorMatrix in="SourceAlpha" type="matrix" values="0 0 0 0 0 0 0 0 0 0 0 0 0 0 0 0 0 0 127 0" result="hardAlpha"/>
<feOffset dy="3.5"/>
<feGaussianBlur stdDeviation="2.75"/>
<feColorMatrix type="matrix" values="0 0 0 0 0 0 0 0 0 0 0 0 0 0 0 0 0 0 0.02 0"/>
<feBlend mode="normal" in2="BackgroundImageFix" result="effect1_dropShadow_1_4642"/>
<feBlend mode="normal" in="SourceGraphic" in2="effect1_dropShadow_1_4642" result="shape"/>
</filter>
<linearGradient id="paint0_linear_1_4642" x1="8.93333" y1="1.26667" x2="71.2667" y2="67.2667" gradientUnits="userSpaceOnUse">
<stop stop-color="#F60000"/>
<stop offset="1" stop-color="#683A37"/>
</linearGradient>
</defs>
</svg>
